<?xml version="1.0" standalone="no"?>
<!DOCTYPE svg PUBLIC "-//W3C//DTD SVG 1.1//EN" "http://www.w3.org/Graphics/SVG/1.1/DTD/svg11.dtd" >
<svg xmlns="http://www.w3.org/2000/svg">
<metadata></metadata>
<defs>
<font id="plantinregular" horiz-adv-x="1130" >
<font-face units-per-em="2048" ascent="1536" descent="-512" />
<missing-glyph horiz-adv-x="569" />
<glyph horiz-adv-x="0" />
<glyph horiz-adv-x="0" />
<glyph unicode="&#xd;" horiz-adv-x="512" />
<glyph unicode=" "  horiz-adv-x="569" />
<glyph unicode="&#x09;" horiz-adv-x="569" />
<glyph unicode="&#xa0;" horiz-adv-x="569" />
<glyph unicode="!" horiz-adv-x="598" d="M172 104q0 53 36 89t89 36t90 -35.5t37 -89.5q0 -53 -37 -90t-90 -37t-89 37t-36 90zM184 1341q-4 47 11.5 69t68.5 22h70q53 0 68.5 -21.5t11.5 -69.5l-70 -915q-2 -23 -8 -31t-23 -8h-28q-16 0 -22.5 8t-8.5 31z" />
<glyph unicode="&#x22;" horiz-adv-x="835" d="M135 1286q0 49 27.5 80t73.5 31q47 0 74.5 -31t27.5 -80l-8 -78l-19 -100l-53 -297h-43l-55 297l-19 100zM496 1286q0 49 27.5 80t74.5 31t74.5 -31t27.5 -80l-8 -78l-18 -100l-53 -297h-46l-53 297l-18 100z" />
<glyph unicode="#" horiz-adv-x="1368" d="M84 362v144h219l74 350h-293v143h322l86 398h141l-84 -398h399l84 398h144l-84 -398h190v-143h-219l-72 -350h291v-144h-319l-84 -395h-144l84 395h-403l-80 -395h-146l84 395h-190zM446 508h402l74 348h-402z" />
<glyph unicode="$" d="M113 231q0 39 27.5 67t68.5 28q43 0 61.5 -23.5t30.5 -57.5t27.5 -71t48.5 -61v544q-127 55 -185.5 137.5t-58.5 192.5q0 115 61.5 195t182.5 121v94h76v-76q23 4 49 6t51 2q27 0 51.5 -2t50.5 -6v76h76v-94q109 -31 179.5 -93.5t70.5 -128.5q0 -31 -18.5 -55.5 t-40.5 -24.5q-51 0 -78 25t-43.5 57.5t-30.5 64.5t-39 46v-463q133 -43 209 -139t76 -219q0 -133 -77 -233.5t-208 -139.5v-231h-76v215q-25 -4 -43 -7q-10 -2 -21 -2h-24q-29 0 -55.5 2.5t-58.5 8.5v-217h-76v231q-55 16 -103.5 42t-84 57.5t-56 65.5t-20.5 66zM258 1038 q0 -57 30.5 -102t88.5 -76v348q-119 -55 -119 -170zM453 80q53 -14 103 -15.5t99 -1.5v492q-55 16 -103 33.5t-99 36.5v-545zM453 827q51 -23 99 -38t103 -33v475q-29 4 -51 7t-47 3q-23 0 -49.5 -3t-54.5 -7v-404zM731 84q72 31 115 92.5t43 132.5q0 72 -36 121t-122 92 v-438z" />
<glyph unicode="%" horiz-adv-x="1855" d="M156 1051q0 80 22.5 147.5t62.5 117.5t95 77.5t121 27.5t120 -27.5t94 -75.5t62.5 -114.5t22.5 -146.5q0 -78 -22.5 -144.5t-62.5 -114.5t-94.5 -76t-119.5 -28q-66 0 -121 27t-95 74t-62.5 112.5t-22.5 143.5zM309 1055q0 -158 36 -232.5t112 -74.5q145 -1 145 296 q0 170 -35 247t-112 77q-74 0 -110 -75.5t-36 -237.5zM391 -63l946 1484h105l-944 -1484h-107zM1098 332q0 80 22.5 147.5t62.5 117.5t95 77.5t121 27.5t120 -27.5t94 -75.5t62.5 -114.5t22.5 -146.5q0 -78 -22.5 -144.5t-62.5 -114.5t-94.5 -76t-119.5 -28q-66 0 -121 27 t-95 74t-62.5 112.5t-22.5 143.5zM1251 336q0 -158 36 -232.5t112 -74.5q145 0 145 297q0 170 -34.5 246.5t-112.5 76.5q-74 0 -110 -75.5t-36 -237.5z" />
<glyph unicode="&#x26;" horiz-adv-x="1536" d="M72 354q0 63 19.5 116.5t64.5 107t115.5 112t174.5 131.5q-80 88 -114.5 153.5t-34.5 125.5q0 63 44 122.5t106.5 105.5t130 75t114.5 29q59 0 108.5 -30t83.5 -72t52 -87t18 -76q0 -33 -13 -63.5t-45 -63t-84 -70.5t-130 -87q82 -72 171 -197t181 -262q66 86 103 164 t37 119t-35 72.5t-95 41.5v78h431v-78q-74 -14 -114 -50t-75 -94.5t-78 -140t-123 -188.5q29 -35 61 -73.5t52 -59.5q53 -53 102.5 -74.5t88 -33t61.5 -25.5t23 -51q0 -53 -91 -54h-71q-238 0 -371 201q-121 -111 -221.5 -157t-220.5 -46q-106 0 -186.5 34t-133.5 87.5 t-79.5 122t-26.5 135.5zM266 455q0 -61 31 -121t82 -105t115.5 -72.5t134.5 -27.5q74 0 131 24.5t131 90.5q-43 74 -94.5 151.5t-103.5 147t-101 128t-90 93.5q-125 -86 -180.5 -158.5t-55.5 -150.5zM449 1169q0 -47 45 -101t129 -126q92 53 135 101.5t43 99.5 q0 27 -15.5 59.5t-39 60t-53 47t-58.5 19.5q-35 0 -69 -13t-59.5 -36t-41.5 -51.5t-16 -59.5z" />
<glyph unicode="'" horiz-adv-x="368" d="M82 1286q0 49 27.5 80t74.5 31q45 0 73 -31t28 -80l-9 -78l-16 -100l-55 -297h-43l-53 297l-19 100z" />
<glyph unicode="(" horiz-adv-x="788" d="M195 522q0 295 125.5 524.5t373.5 376.5l64 -77q-211 -129 -322.5 -336t-111.5 -488t111.5 -487.5t322.5 -335.5l-64 -78q-248 147 -373.5 376.5t-125.5 524.5z" />
<glyph unicode=")" horiz-adv-x="788" d="M31 -301q211 129 322.5 336t111.5 487q0 281 -111.5 488t-322.5 336l63 77q248 -147 374 -376.5t126 -524.5t-126 -524t-374 -377z" />
<glyph unicode="*" horiz-adv-x="1024" d="M70 1114l18 57h340l55 322h58l77 -307l322 57l14 -57l-278 -189l170 -313l-43 -49l-266 233l-269 -233l-43 49l174 291z" />
<glyph unicode="+" horiz-adv-x="1366" d="M135 588v157h469v469h158v-469h469v-157h-469v-469h-158v469h-469z" />
<glyph unicode="," horiz-adv-x="598" d="M68 -238q137 16 213.5 63.5t76.5 145.5q0 59 -22.5 88t-75.5 29q-59 0 -93 31t-34 86q0 59 36 94t95 35q45 0 84 -22.5t67.5 -62.5t45 -95.5t16.5 -118.5q0 -164 -106.5 -254t-302.5 -94v75z" />
<glyph unicode="-" horiz-adv-x="747" d="M59 408v155h629v-155h-629z" />
<glyph unicode="." horiz-adv-x="598" d="M172 104q0 53 36 89t89 36t90 -35.5t37 -89.5q0 -53 -37 -90t-90 -37t-89 37t-36 90z" />
<glyph unicode="/" horiz-adv-x="569" d="M0 -25l479 1457h90l-479 -1457h-90z" />
<glyph unicode="0" d="M100 627q0 154 36 287t99.5 232t148.5 156.5t183 57.5q100 0 185.5 -49t147 -137.5t96 -209t34.5 -262.5q0 -135 -30.5 -259t-90.5 -232q-66 -117 -153.5 -176.5t-194.5 -59.5q-203 0 -338 205q-123 187 -123 447zM293 750q0 -94 7 -183.5t19 -167.5q18 -106 74 -215 q33 -66 81 -99.5t104 -33.5q66 0 122 47t84 129q29 76 41.5 163t12.5 212q0 324 -77 497t-218 173q-59 0 -113.5 -42t-83.5 -114q-29 -70 -41 -150.5t-12 -215.5z" />
<glyph unicode="1" d="M274 0v74h33q170 0 170 186v754q0 84 -35.5 126t-126.5 42h-34v73q109 0 181.5 24t147.5 81h60v-1094q0 -94 36.5 -143t129.5 -49h20v-74h-582z" />
<glyph unicode="2" d="M100 0v74q141 156 265 275.5t215.5 220t144.5 188.5t53 182q0 55 -19.5 105.5t-51 87t-75.5 58t-93 21.5q-109 0 -200 -80.5t-155 -230.5l-75 31q74 207 197.5 317.5t283.5 110.5q80 0 149.5 -30t120.5 -82t81 -120.5t30 -148.5q0 -127 -64.5 -219t-164 -178 t-219.5 -183.5t-232 -232.5h430q49 0 85 8t62.5 27.5t49 52.5t43.5 84h71l-100 -338h-832z" />
<glyph unicode="3" d="M88 68l41 59q74 -35 130 -49.5t122 -14.5q88 0 165 29t135 80t92 120.5t34 149.5q0 115 -67.5 187.5t-168.5 72.5q-96 0 -211 -77l-32 67q193 109 287 189t94 180q0 72 -50.5 121t-128.5 49q-170 0 -354 -207l-57 45q106 143 220 217t251 74q68 0 125 -17.5t98 -50 t64.5 -78t23.5 -98.5q0 -78 -55 -146.5t-187 -154.5l5 -4q74 10 135 -13.5t106 -70.5t69.5 -109.5t24.5 -128.5q0 -102 -47 -195t-127 -164t-186.5 -113t-224.5 -42q-92 0 -181.5 26t-144.5 67z" />
<glyph unicode="4" d="M78 383v119l590 858h163v-877q61 0 90 28t52 103h69l-30 -231h-181v-147q0 -90 41 -126t140 -36v-74h-557v74q104 0 144 39t40 127v143h-561zM162 483h477v699h-4z" />
<glyph unicode="5" d="M121 18l31 70q59 -12 105 -18.5t89 -6.5q90 0 168 31t136.5 84t92 124t33.5 153q0 74 -25.5 134t-69.5 104t-105.5 68.5t-135.5 24.5q-72 0 -132 -21.5t-120 -68.5l-47 13l146 626h504q61 0 83.5 4t34.5 21h70l-39 -191h-614l-62 -272q72 29 125 42t113 13 q100 0 186 -35.5t149.5 -99t100.5 -149.5t37 -185q0 -111 -44 -204t-122 -160.5t-184.5 -105.5t-231.5 -38q-143 0 -272 43z" />
<glyph unicode="6" d="M131 571q0 172 64.5 317.5t172 252t246 165t285.5 54.5v-72q-104 -4 -198.5 -40t-168 -102.5t-123 -162.5t-65.5 -219l4 -4q76 82 150.5 113.5t158.5 31.5q80 0 146.5 -32.5t115 -90t76 -136.5t27.5 -171q0 -102 -33 -193.5t-90 -159t-132 -107.5t-161 -40q-80 0 -165 37 t-153.5 111t-112.5 185.5t-44 262.5zM332 621q-8 -117 9 -218.5t54 -177t90.5 -119t118.5 -43.5q92 0 158.5 92.5t66.5 274.5q0 168 -65.5 270.5t-169.5 102.5q-76 0 -135 -42t-127 -140z" />
<glyph unicode="7" d="M100 991l84 369h49q25 -18 66 -23q18 -2 39.5 -2h46.5h606v-104q-72 -113 -140.5 -267.5t-122.5 -323.5t-88 -336t-34 -304h-200q0 213 121.5 495.5t338.5 673.5h-463q-98 0 -149 -39.5t-78 -138.5h-76z" />
<glyph unicode="8" d="M119 330q0 121 80 207t209 141q-135 72 -196.5 149.5t-61.5 182.5q0 72 32.5 136t90 111.5t133 75t161.5 27.5t160 -24.5t129 -67.5t87 -101.5t32 -126.5q0 -96 -60.5 -165.5t-191.5 -124.5q289 -141 289 -392q0 -84 -33 -154.5t-92.5 -120.5t-142 -79t-181.5 -29 q-94 0 -175 28t-141.5 75t-94 111.5t-33.5 140.5zM279 346q0 -131 82.5 -213t218.5 -82q125 0 203.5 68.5t78.5 175.5q0 63 -25.5 110.5t-73.5 87t-119 74.5t-163 74q-98 -47 -150 -122t-52 -173zM313 1071q0 -63 32 -106t81 -74t107.5 -55.5t111.5 -49.5q180 82 180 238 q0 109 -76.5 178.5t-195.5 69.5q-51 0 -94 -15.5t-76 -43t-51.5 -63.5t-18.5 -79z" />
<glyph unicode="9" d="M109 860q0 102 32.5 193.5t90 159t132 107.5t160.5 40q78 0 162 -35t153.5 -108.5t114.5 -186t45 -268.5q0 -150 -55 -291t-155.5 -250.5t-243 -177.5t-314.5 -68v72q221 16 367.5 142t185.5 380l-4 4q-80 -78 -151.5 -110.5t-155.5 -32.5q-80 0 -146.5 33t-114.5 90 t-75.5 136t-27.5 171zM301 905q0 -82 17.5 -150.5t48 -117.5t74.5 -77t96 -28q153 1 262 183q8 129 -10.5 232.5t-56.5 176t-90 110.5t-112 38q-102 0 -165.5 -93.5t-63.5 -273.5z" />
<glyph unicode=":" horiz-adv-x="598" d="M172 104q0 53 36 89t89 36t90 -35.5t37 -89.5q0 -53 -37 -90t-90 -37t-89 37t-36 90zM172 819q0 53 36 89t89 36t90 -36t37 -89t-37 -90t-90 -37t-89 37t-36 90z" />
<glyph unicode=";" horiz-adv-x="598" d="M68 -238q137 16 213.5 63.5t76.5 145.5q0 59 -22.5 88t-75.5 29q-59 0 -93 31t-34 86q0 59 36 94t95 35q45 0 84 -22.5t67.5 -62.5t45 -95.5t16.5 -118.5q0 -164 -106.5 -254t-302.5 -94v75zM172 819q0 53 36 89t89 36t90 -36t37 -89t-37 -90t-90 -37t-89 37t-36 90z" />
<glyph unicode="&#x3c;" horiz-adv-x="1366" d="M135 596v143l1094 459v-170l-881 -360l881 -361v-170z" />
<glyph unicode="=" horiz-adv-x="1366" d="M135 352v158h1096v-158h-1096zM135 825v158h1096v-158h-1096z" />
<glyph unicode="&#x3e;" horiz-adv-x="1366" d="M135 137v170l881 359l-881 360v172l1094 -461v-141z" />
<glyph unicode="?" horiz-adv-x="788" d="M72 1307q0 57 49 91t131 34q109 0 196 -69t148 -161t95 -184t34 -139q0 -57 -18.5 -107.5t-59.5 -91.5t-84 -63.5t-85 -38t-77.5 -31t-62.5 -41.5q-23 -23 -30 -60.5t-9 -87.5h-74q0 74 -5 124t-10 85t-10 57.5t-5 39.5q0 25 12 36q12 12 51 21.5t87 22t99.5 33 t90.5 59.5q29 29 45 63.5t16 69.5q0 51 -24.5 104t-64.5 96t-88 71t-95 28q-27 0 -48.5 -7.5t-40 -15.5t-37 -15t-40.5 -7q-39 0 -62.5 23.5t-23.5 60.5zM143 104q0 53 36 89t89 36t90 -35.5t37 -89.5q0 -53 -36.5 -90t-90.5 -37q-53 0 -89 37t-36 90z" />
<glyph unicode="@" horiz-adv-x="1886" d="M104 444q0 205 74 383.5t201 310.5t300 207.5t372 75.5q160 0 292 -50t225 -140t145 -216t52 -280q0 -104 -32.5 -227t-100 -229.5t-171 -177t-244.5 -70.5q-156 0 -156 139q0 31 3 61.5t13 79.5l-4 4q-41 -53 -87 -104t-95 -91t-100.5 -64.5t-104.5 -24.5 q-78 0 -130 67.5t-52 167.5q0 119 54 243t137 225.5t179.5 166t180.5 64.5q59 0 108 -34t62 -106h4l31 111l157 22l-194 -669q-27 -88 -7.5 -137.5t70.5 -49.5q66 0 138.5 48.5t135 134.5t103.5 205.5t41 263.5q0 135 -48 248.5t-134 194.5t-205 127t-260 46 q-199 0 -358.5 -83t-270.5 -217t-170 -305t-59 -347t57 -322.5t161.5 -253t248 -165t315.5 -58.5q274 0 482 142.5t323 410.5h57q-37 -127 -116.5 -239.5t-193.5 -195.5t-255 -131t-301 -48q-188 0 -348 66.5t-276.5 184t-182.5 280.5t-66 355zM662 297q0 -61 33.5 -103 t82.5 -42q61 0 134 54t134.5 142t102.5 198.5t41 223.5q0 66 -35 107t-88 41q-49 0 -99 -35t-95.5 -91.5t-84 -126t-66.5 -138t-44 -130t-16 -100.5z" />
<glyph unicode="A" horiz-adv-x="1472" d="M6 0v78q41 10 68.5 26.5t49 43t40 65.5t41.5 94l411 1024l-32 66h219l508 -1182q31 -72 64.5 -104.5t90.5 -32.5v-78h-573v78q123 12 157 68q15 26 15 60q0 39 -21 89l-104 250h-541l-73 -193q-20 -53 -22 -102v-7q0 -45 18 -79q20 -37 59 -59.5t96 -26.5v-78h-471z M442 655h451l-231 555z" />
<glyph unicode="B" horiz-adv-x="1409" d="M68 0v78q127 0 172 55t45 156v831q0 104 -50.5 151.5t-166.5 47.5v78h743q215 0 330.5 -88t115.5 -250q0 -141 -99 -217t-316 -109v-4q135 -2 225 -37t145.5 -86t78 -112.5t22.5 -120.5q0 -88 -38 -157t-102.5 -117t-149.5 -73.5t-177 -25.5h-778zM500 295 q0 -100 47 -153.5t145 -53.5h105q125 0 196.5 72.5t71.5 197.5q0 57 -19.5 115.5t-62.5 105t-111.5 75t-164.5 28.5h-207v-387zM500 778h194q164 0 240 53.5t76 194.5t-90.5 212t-255.5 71h-164v-531z" />
<glyph unicode="C" horiz-adv-x="1599" d="M127 678q0 135 50 267t151.5 238.5t253 172t356.5 65.5q115 0 232.5 -24.5t246.5 -71.5l49 -326h-65q-72 154 -202 244t-284 90q-104 0 -201.5 -39t-173 -116.5t-120.5 -193.5t-45 -271q0 -131 38 -249t110.5 -207t178 -141.5t242.5 -52.5q174 0 296 85t161 260h76 l-11 -322q-57 -25 -128.5 -44t-146.5 -34.5t-147.5 -24t-134.5 -8.5q-172 0 -315 52.5t-247.5 145.5t-162 222t-57.5 283z" />
<glyph unicode="D" horiz-adv-x="1728" d="M59 0v78q129 0 179.5 45t50.5 162v813q0 49 -9.5 90t-34 70.5t-69.5 45t-117 15.5v78h795q197 0 332 -51.5t239 -155.5q117 -117 162 -234.5t45 -246.5q0 -119 -45 -245t-141 -229.5t-246.5 -169t-361.5 -65.5h-779zM504 305q0 -98 57 -157.5t158 -59.5h117 q137 0 238.5 47t169 126t100 181.5t32.5 214.5q0 121 -36.5 238t-118.5 209t-209 148.5t-310 56.5h-198v-1004z" />
<glyph unicode="E" horiz-adv-x="1386" d="M53 0v78q117 0 168 48t51 161v823q0 102 -47 155.5t-172 53.5v78h1184v-312h-74q-27 70 -61.5 113t-76.5 67.5t-94 34t-116 9.5h-328v-537h275q145 0 205.5 43t68.5 154h84v-494h-84q-18 117 -77.5 163t-192.5 46h-279v-338q0 -74 11.5 -123t39 -79.5t73.5 -43t116 -12.5 h102q86 0 149.5 12.5t113 42t88.5 78.5t75 121h93l-93 -342h-1202z" />
<glyph unicode="F" horiz-adv-x="1343" d="M57 1319v78h1243v-316h-61q-33 68 -66.5 112t-72.5 69.5t-88 36t-115 10.5h-395v-525h336q119 0 162.5 43t54.5 142h86v-504h-84q-23 127 -81 179t-177 52h-297v-413q0 -117 54 -161t194 -44v-78h-680v78q127 0 172 53t45 154v811q0 119 -48.5 171t-181.5 52z" />
<glyph unicode="G" horiz-adv-x="1705" d="M92 674q0 156 67.5 292t184.5 237.5t274.5 159.5t337.5 58q121 0 235 -20.5t265 -71.5l29 -328h-84q-80 170 -198 251t-283 81q-123 0 -227.5 -47t-181.5 -132t-120 -199.5t-43 -249.5t46 -253t126 -204t188.5 -135.5t233.5 -49.5q86 0 167 21.5t173 69.5v295 q0 94 -49 143t-154 49h-43v78h656v-78q-109 -10 -148 -57t-39 -150v-360q-176 -53 -314 -76t-259 -23q-215 0 -373 61.5t-261 160t-154.5 223.5t-51.5 254z" />
<glyph unicode="H" horiz-adv-x="1748" d="M63 0v78q68 0 110 14t65.5 42t32 67t8.5 90v827q0 109 -50.5 155t-165.5 46v78h652v-78q-106 0 -163.5 -43t-57.5 -160v-348h757v365q0 86 -48 136t-150 50v78h633v-78q-125 0 -172.5 -51t-47.5 -162v-807q0 -53 9.5 -95t33 -70t66.5 -42t111 -14v-78h-633v78 q104 0 151 51t47 147v386h-757v-377q0 -115 52 -161t169 -46v-78h-652z" />
<glyph unicode="I" horiz-adv-x="768" d="M55 0v78q72 0 116 13t67.5 43t32 74t8.5 105v787q0 115 -46.5 167t-177.5 52v78h658v-78q-113 0 -166 -46t-53 -165v-823q0 -100 45 -153.5t174 -53.5v-78h-658z" />
<glyph unicode="J" horiz-adv-x="724" d="M-72 -215q0 41 26 68.5t69 27.5q41 0 64.5 -22.5t41.5 -49t36.5 -49t51.5 -22.5q47 0 58.5 46t11.5 124v1204q0 109 -50.5 158t-175.5 49v78h666v-78q-113 0 -169 -42t-56 -144v-924q0 -150 -26.5 -256.5t-75 -174t-115 -98t-146.5 -30.5q-92 0 -151.5 38t-59.5 97z" />
<glyph unicode="K" horiz-adv-x="1642" d="M63 0v78q123 0 170.5 50t47.5 169v795q0 55 -8.5 97t-33 71.5t-66.5 44t-110 14.5v78h650v-78q-111 0 -164 -44t-53 -149v-847q0 -94 46 -147.5t183 -53.5v-78h-662zM512 719q297 205 426 330t129 186q0 84 -125 84v78h580v-78q-76 -8 -133.5 -28.5t-118.5 -67.5 q-49 -37 -96.5 -80t-105.5 -97.5t-135 -119t-185 -144.5q72 -55 153.5 -127.5t166.5 -151.5t170 -155t163 -135q86 -66 146.5 -92.5t125.5 -38.5v-82h-360q-63 51 -144.5 125t-177.5 164t-208.5 192.5t-243.5 212.5z" />
<glyph unicode="L" horiz-adv-x="1386" d="M45 0v78q72 4 117 16t70.5 39t34.5 70t9 110v801q0 102 -46 153.5t-185 51.5v78h678v-78q-70 0 -115 -14.5t-71.5 -40t-35.5 -62.5t-9 -80v-764q0 -141 59 -205.5t211 -64.5h182q135 0 229.5 57.5t172.5 196.5h86l-86 -342h-1301z" />
<glyph unicode="M" horiz-adv-x="2068" d="M45 0v78q92 0 134 49t59 160l116 760q8 54 8 96q0 63 -18 103q-30 66 -139 73v78h407q8 -133 62.5 -275.5t123 -285t138.5 -279.5t108 -260q135 264 222.5 447.5t138.5 304.5q47 111 61 191q7 37 7 74q0 42 -9 83h416v-78q-59 -6 -93 -22.5t-49.5 -46t-16.5 -70.5v-12 q0 -37 5 -85l105 -800q12 -88 56 -140.5t157 -64.5v-78h-619v78q103 0 147 58q34 46 35 118q0 20 -3 41l-95 788h-4q-53 -162 -125.5 -312t-143.5 -287.5t-127 -258.5t-79 -225h-96q-16 96 -76.5 230.5t-135.5 284t-149.5 305t-119.5 296.5h-4l-107 -741q-9 -58 -9 -104 q0 -77 27 -119q43 -66 164 -74v-78h-479z" />
<glyph unicode="N" horiz-adv-x="1728" d="M14 1319v78h332l1047 -1061v670q-2 61 -11.5 117.5t-35 99.5t-72.5 69.5t-125 26.5v78h551v-78q-117 0 -168 -86t-51 -227v-641q0 -76 6 -127.5t14 -91.5t16.5 -76.5t10.5 -85.5h-135q-47 66 -88 114.5t-76 83.5l-848 869v-711q0 -141 61.5 -201.5t188.5 -60.5v-78h-586 v78q135 0 193 48q56 46 55 167v8v844l-90 90q-51 47 -90 62.5t-99 21.5z" />
<glyph unicode="O" horiz-adv-x="1665" d="M109 672q0 186 62 326.5t164.5 234.5t232.5 141t266 47q156 0 287.5 -55t229 -152.5t151.5 -230.5t54 -291q0 -152 -58 -282.5t-159.5 -227t-239.5 -152t-298 -55.5q-137 0 -263 50.5t-221.5 142.5t-151.5 220t-56 284zM356 782q0 -141 33 -270t96.5 -229.5t158.5 -160 t218 -59.5q100 0 183 40t141.5 112t90.5 174.5t32 224.5q0 133 -32 262.5t-96.5 230.5t-159.5 163.5t-224 62.5q-92 0 -172 -35.5t-140.5 -104.5t-94.5 -172.5t-34 -238.5z" />
<glyph unicode="P" horiz-adv-x="1300" d="M68 0v78q66 0 105.5 14t63 42t31.5 68t8 89v842q0 186 -208 186v78h716q102 0 187.5 -27t147 -75t95 -116.5t33.5 -152.5q0 -90 -36.5 -162.5t-103.5 -125t-161 -81t-209 -28.5q-143 0 -143 59q0 23 13.5 31t30.5 11t34.5 1t27.5 -2q135 0 217 75t82 197q0 55 -13 110.5 t-50 99.5t-102.5 71t-169.5 27h-172v-1018q0 -113 49 -163t186 -50v-78h-659z" />
<glyph unicode="Q" horiz-adv-x="1665" d="M109 680q0 160 54 296t151.5 235.5t230.5 154.5t289 55t287.5 -55t229 -152.5t151.5 -229.5t54 -288q0 -131 -39.5 -244.5t-113.5 -203.5t-180.5 -154.5t-239.5 -95.5v-4q147 -70 314 -124t341 -83v-178q-180 16 -314 47t-257 92q-121 59 -232.5 127t-216.5 125 q-250 96 -379.5 258t-129.5 422zM356 799q0 -162 37 -298t102.5 -232.5t159 -151t205.5 -54.5q94 0 176 36t142.5 106.5t95.5 174t35 238.5q0 129 -33 256t-97.5 229.5t-160.5 166t-223 63.5q-96 0 -177 -40t-139.5 -110.5t-90.5 -168.5t-32 -215z" />
<glyph unicode="R" horiz-adv-x="1472" d="M76 0v78q68 0 108.5 17.5t62 49t29 74.5t7.5 94v805q0 102 -49.5 151.5t-157.5 49.5v78h669q143 0 242.5 -29t162 -78t90.5 -114.5t28 -139.5q0 -55 -20.5 -110.5t-66.5 -103.5t-118 -84t-176 -52l293 -334q117 -133 198.5 -203.5t141.5 -70.5v-78h-164q-55 0 -97 10 t-82 36t-83 72t-101 118l-272 339q-18 23 -33.5 39.5t-33 26.5t-40 14t-57.5 4h-59v-389q0 -98 49 -145t166 -47v-78h-637zM498 748h192q174 0 252 70.5t78 193.5q0 59 -21.5 112.5t-65.5 94.5t-112.5 65.5t-163.5 24.5h-159v-561z" />
<glyph unicode="S" horiz-adv-x="1216" d="M121 74v352h88q31 -158 120 -255t259 -97q63 0 119.5 18.5t97.5 49t65.5 72.5t24.5 89q0 29 -14.5 67t-59.5 83q-49 49 -121.5 94t-152.5 91t-160 98t-145 116q-43 43 -67.5 95t-24.5 122q0 80 34.5 144.5t97 110.5t149.5 71.5t194 25.5q104 0 214.5 -29.5t213.5 -86.5 v-301h-88q-6 78 -35 139t-76 103t-108.5 64.5t-133.5 22.5q-53 0 -99 -14t-80 -41t-53.5 -62.5t-19.5 -76.5q0 -74 66 -140q41 -41 112.5 -84t153.5 -90t163 -99t138 -110q55 -55 84 -116.5t29 -137.5q0 -86 -38 -156.5t-105.5 -121.5t-161.5 -80t-207 -29q-55 0 -121.5 8.5 t-132.5 21.5t-123 30.5t-96 38.5z" />
<glyph unicode="T" horiz-adv-x="1556" d="M29 1065l20 332h1458l23 -332h-70q-45 78 -79.5 126t-72.5 73.5t-85 35t-115 9.5h-221v-1033q0 -96 46 -147t175 -51v-78h-657v78q127 0 174 50t47 161v1020h-221q-68 0 -116 -9.5t-86 -36t-73 -73.5t-78 -125h-69z" />
<glyph unicode="U" horiz-adv-x="1705" d="M35 1319v78h672v-78q-133 0 -183.5 -47t-50.5 -166v-637q0 -172 114.5 -271.5t321.5 -99.5q86 0 168 24.5t145.5 78t101.5 137.5t38 205v536q0 55 -10.5 99.5t-38 76t-73.5 48t-120 16.5v78h551v-78q-96 0 -156.5 -47t-60.5 -168v-578q0 -158 -48 -263t-130 -169.5 t-189.5 -91.5t-226.5 -27q-158 0 -271.5 37t-187 99.5t-108.5 144.5t-35 172v694q0 92 -45 144.5t-178 52.5z" />
<glyph unicode="V" horiz-adv-x="1449" d="M4 1319v78h559v-78q-70 -2 -108.5 -17.5t-50.5 -45.5q-6 -14 -6 -31q0 -21 8 -47q14 -48 47 -117l264 -551q27 -55 48 -112.5t44 -114.5q23 66 46.5 121t47.5 114l174 410q35 80 53 148q13 50 14 90q0 15 -2 29q-7 50 -48 83t-125 41v78h479v-78q-45 -14 -77 -33.5 t-54 -42.5q-16 -16 -35.5 -58t-41 -97.5t-44 -118t-47.5 -119.5l-250 -582q-25 -59 -49.5 -134t-40.5 -159h-111q-12 55 -32.5 112.5t-53.5 129.5l-426 922q-29 61 -49 97t-39.5 54.5t-41 23.5t-52.5 5z" />
<glyph unicode="W" horiz-adv-x="2048" d="M2 1319v78h485v-78q-51 -12 -75 -37q-25 -26 -29 -58q-1 -9 -1 -19q0 -24 7 -51q10 -38 29 -79l164 -348q16 -33 41.5 -93.5t56.5 -130t60.5 -141t50.5 -129.5l198 396l-221 485q-29 66 -53.5 104.5t-46 61.5t-42 31t-42.5 8v78h475v-78q-73 -17 -89 -71q-6 -19 -5 -39 q0 -37 20 -79l129 -260l121 236q15 28 21 60q3 15 3 29q-1 17 -5 34q-8 31 -30 55.5t-65 34.5v78h373v-78q-31 -8 -53.5 -22.5t-44 -38t-43 -59.5t-50.5 -89l-182 -340l178 -360q18 -39 31.5 -71t30.5 -73l315 725q46 105 46 182q0 21 -3 41q-16 90 -127 105v78h416v-78 q-55 -8 -97 -53t-83 -142l-416 -952q-18 -41 -37.5 -98.5t-26.5 -98.5h-96q-8 37 -19 67t-22 52l-215 438l-153 -299q-10 -20 -26.5 -54t-34 -71.5t-31 -73.5t-15.5 -59h-108q-2 20 -11.5 48t-21.5 60t-24.5 62.5t-24.5 57.5l-406 903q-27 59 -44 97t-35.5 60.5t-40 35 t-56.5 20.5z" />
<glyph unicode="X" horiz-adv-x="1599" d="M14 1319v78h662v-78q-122 -5 -144 -57q-5 -13 -6 -28q0 -43 47 -97l254 -299l211 252q34 40 48 78q10 25 9 47q-1 12 -3 23q-8 32 -41 54.5t-97 26.5v78h527v-78q-37 -2 -73 -15.5t-77 -41t-87 -72.5t-103 -113l-256 -307l422 -508q84 -100 148.5 -142t131.5 -42v-78 h-669v78q126 4 152 57q7 13 6 29q0 47 -58 117l-275 329l-247 -284q-38 -45 -54 -89q-9 -25 -9 -48q1 -17 5 -31q12 -35 49 -57.5t105 -22.5v-78h-565v78q49 8 84.5 19.5t70.5 35t74 60t90 96.5l342 387l-393 471q-43 51 -76 84t-63.5 52.5t-63.5 26.5t-78 9z" />
<glyph unicode="Y" horiz-adv-x="1472" d="M16 1319v78h615v-78q-123 0 -151 -50q-9 -17 -9 -37q0 -40 37 -93l305 -445l238 348q37 53 49 102q6 25 6 46q0 23 -6 42q-13 38 -49.5 61.5t-98.5 25.5v78h504v-78q-31 -4 -57.5 -15.5t-54 -34t-57.5 -59t-66 -90.5l-375 -534v-316q0 -192 203 -192h2v-78h-629v78 q102 0 155.5 45t53.5 149v314l-428 626q-35 53 -78 77t-109 30z" />
<glyph unicode="Z" horiz-adv-x="1386" d="M61 0v61l934 1248h-413q-72 0 -123 -10.5t-90 -37t-69 -70.5t-60 -112h-76v318h1118v-60l-942 -1249h408q102 0 171.5 12.5t124 43t101.5 84t106 134.5h80l-92 -362h-1178z" />
<glyph unicode="[" horiz-adv-x="768" d="M287 -244v1536q0 33 6 66t16 65h426v-80h-117q-92 0 -125.5 -33.5t-33.5 -125.5v-1319q0 -92 33.5 -126t125.5 -34h117v-80h-426q-10 33 -16 66t-6 65z" />
<glyph unicode="\" horiz-adv-x="569" d="M0 1432h90l479 -1457h-92z" />
<glyph unicode="]" horiz-adv-x="768" d="M33 -295h117q92 0 125.5 34t33.5 126v1319q0 92 -33.5 125.5t-125.5 33.5h-117v80h426q10 -33 16 -65.5t6 -65.5v-1536q0 -33 -6 -65.5t-16 -65.5h-426v80z" />
<glyph unicode="^" horiz-adv-x="960" d="M20 680l424 717h76l420 -717h-127l-332 569l-334 -569h-127z" />
<glyph unicode="_" horiz-adv-x="1024" d="M-12 -154h1048v-102h-1048v102z" />
<glyph unicode="`" horiz-adv-x="681" d="M119 1421h223l104 -346h-32z" />
<glyph unicode="a" horiz-adv-x="980" d="M92 197q0 96 72 160.5t242 121.5l219 76v139q0 45 -19.5 76t-49.5 50.5t-62.5 27.5t-57.5 8q-59 0 -108 -30.5t-49 -65.5q0 -16 12 -37t23.5 -40t13.5 -35.5t-19 -26.5l-121 -58q-4 -2 -15 13.5t-22.5 38t-20.5 48t-9 42.5q0 37 21.5 78.5t66.5 77.5t116.5 59.5 t172.5 23.5q147 0 223 -51t76 -168v-524q1 -57 31 -73q10 -5 21 -4q26 0 62 23l19 -73q-45 -51 -85 -74t-81 -23q-59 0 -95 38t-44 110q-90 -80 -159 -114t-144 -34q-100 0 -165 61.5t-65 158.5zM274 248q0 -47 33 -90t111 -43q106 0 207 106v256l-109 -41 q-125 -47 -183.5 -85t-58.5 -103z" />
<glyph unicode="b" horiz-adv-x="1148" d="M14 1274v47l267 102h51v-643q90 90 169 127t177 37q100 0 173 -45t120 -113.5t69.5 -151.5t22.5 -157q0 -111 -38 -202t-106.5 -157.5t-162.5 -103.5t-209 -37q-88 0 -179.5 24t-207.5 79v1114zM332 340q0 -76 23.5 -128t61.5 -85t86 -47t99 -14q86 0 141.5 35.5t88 87 t46 108.5t13.5 100q0 78 -21.5 149.5t-62.5 127t-98.5 89.5t-128.5 34q-72 0 -136.5 -29t-111.5 -82v-346z" />
<glyph unicode="c" horiz-adv-x="960" d="M90 453q0 82 26.5 169t85 158.5t149.5 117.5t222 46q63 0 122 -10t104 -31.5t71.5 -56.5t26.5 -86q0 -47 -21.5 -72.5t-56.5 -25.5q-49 0 -66.5 30.5t-36 66.5t-54 66.5t-123.5 30.5q-129 0 -206 -91t-77 -241q0 -68 21.5 -136.5t64.5 -123.5t105.5 -90t142.5 -35 q98 0 159.5 32t104.5 99l47 -30q-33 -123 -133 -193t-242 -70q-115 0 -196.5 44.5t-135 113t-79 152.5t-25.5 166z" />
<glyph unicode="d" horiz-adv-x="1173" d="M82 416q0 109 40 205t107.5 167.5t158.5 113.5t194 42q90 0 227 -39v309l-150 82v47l271 80h51v-1212q0 -69 35 -93q18 -13 47 -12q27 0 65 11v-82l-268 -58h-51v154q-80 -76 -168 -115t-174 -39q-80 0 -150.5 34t-123 93.5t-82 139.5t-29.5 172zM254 522 q0 -53 15.5 -123.5t52 -133t97 -106.5t148.5 -44q150 0 242 116v291q0 94 -26.5 157.5t-66.5 102.5t-87 56.5t-90 17.5q-57 0 -109.5 -26.5t-91.5 -71.5t-61.5 -105.5t-22.5 -130.5z" />
<glyph unicode="e" horiz-adv-x="960" d="M88 451q0 104 33 195t90 156.5t136 103.5t169 38q98 0 170 -39t118 -95t68.5 -121.5t22.5 -121.5h-653v-25q0 -87 24 -157q28 -80 77.5 -134t115 -82t137.5 -28q143 0 256 99l43 -39q-66 -109 -165 -166.5t-216 -57.5q-92 0 -171 36t-135 98.5t-88 149.5t-32 190z M254 641h426q-12 111 -64.5 169t-138.5 58q-90 0 -149.5 -61.5t-73.5 -165.5z" />
<glyph unicode="f" horiz-adv-x="636" d="M47 0v74q98 0 133 42t35 120v589h-168v97h47q72 0 92.5 15t22.5 75q2 86 27.5 162.5t75.5 134t123 90.5t171 33q100 0 165 -43t65 -109q0 -39 -25 -62.5t-66 -23.5q-37 0 -60 23.5t-46 51t-48.5 51t-62.5 23.5q-23 0 -48 -10t-45.5 -31.5t-34 -57.5t-13.5 -89v-233h244 v-97h-244v-571q0 -49 7 -84t31 -56.5t65.5 -30.5t109.5 -9v-74h-553z" />
<glyph unicode="g" horiz-adv-x="1024" d="M51 -203q0 43 39 92.5t135 120.5q-116 53 -116 116q0 38 40.5 88t129.5 122q-168 98 -168 274q0 72 26.5 132.5t74.5 105.5t113.5 70.5t143.5 25.5q55 0 102 -8t99 -21q51 -12 111.5 -22t146.5 -10q29 0 45 1t43 5v-139q-25 -4 -58 -4q-16 0 -34 1q-56 3 -105 15 q16 -41 23.5 -74t7.5 -70q0 -86 -37 -148t-94 -102t-123 -59.5t-125 -19.5q-25 0 -53.5 3t-75.5 13q-31 -27 -46 -43t-15 -35q0 -37 45 -51t172 -14h164q141 0 233 -56.5t92 -158.5q0 -74 -40 -136.5t-112.5 -106.5t-171 -69.5t-214.5 -25.5q-109 0 -185 19.5t-123 48 t-68.5 61.5t-21.5 59zM199 -152q0 -45 36.5 -71.5t86 -41t96.5 -18.5t67 -4q49 0 113 8.5t121 27t96 48t39 72.5q0 59 -59.5 83.5t-194.5 24.5h-102q-49 0 -98.5 4.5t-104.5 12.5q-53 -53 -74.5 -82t-21.5 -64zM291 631q0 -53 13 -101.5t39 -84t63.5 -57t87.5 -21.5 q88 0 132 61t44 166q0 70 -20.5 119t-51.5 80.5t-66.5 47t-66.5 15.5q-70 0 -122 -60.5t-52 -164.5z" />
<glyph unicode="h" horiz-adv-x="1148" d="M20 0v74q90 0 122 50t32 114v958l-154 86v47l275 94h51v-632q96 86 172 119.5t168 33.5q55 0 106.5 -15.5t89.5 -51t61.5 -92t23.5 -138.5v-416q0 -84 42 -120.5t107 -36.5v-74h-475v74q82 0 118 43t36 104v385q0 94 -54.5 147.5t-144.5 53.5q-66 0 -129.5 -24.5 t-120.5 -69.5v-461q0 -94 36 -136t128 -42v-74h-490z" />
<glyph unicode="i" horiz-adv-x="555" d="M53 797v47l277 100h51v-706q0 -86 36 -124t91 -40v-74h-447v74q59 0 103.5 35.5t44.5 113.5v496zM176 1313q0 47 32 78.5t79 31.5t78.5 -31.5t31.5 -78.5t-31.5 -79t-78.5 -32t-79 32t-32 79z" />
<glyph unicode="j" horiz-adv-x="532" d="M29 -346q53 76 87 136t55.5 112.5t29.5 98.5t8 91v621l-164 84v47l285 100h51v-815q0 -86 -8 -138t-38 -102.5t-85 -113t-152 -166.5zM176 1313q0 47 32 78.5t79 31.5t78.5 -31.5t31.5 -78.5t-31.5 -79t-78.5 -32t-79 32t-32 79z" />
<glyph unicode="k" horiz-adv-x="1044" d="M66 0v74q20 0 43.5 8t43 26.5t32 47t12.5 67.5v983l-131 72v47l251 98h52v-1196q0 -70 35.5 -111.5t113.5 -41.5v-74h-452zM375 483l194 181q69 63 69 109q0 12 -4 23q-24 52 -134 52v74h508v-74q-59 0 -129 -42t-148 -110l-188 -159l508 -451v-86h-158q-35 23 -60.5 42 t-50.5 44z" />
<glyph unicode="l" horiz-adv-x="555" d="M57 0v74q78 4 110 47t32 108v975l-142 78v47l262 94h52v-1179q0 -78 28.5 -122t98.5 -48v-74h-441z" />
<glyph unicode="m" horiz-adv-x="1771" d="M45 0v74q72 4 112 41t40 114v486l-148 86v47l268 96h52v-156q92 86 167.5 121t174.5 35q100 0 160.5 -36t97.5 -120q94 88 166.5 122t164.5 34q123 0 204 -63.5t81 -192.5v-450q0 -74 31 -114t110 -50v-74h-469v74q86 4 121 44t35 126v385q0 92 -58.5 136t-144.5 44 q-59 0 -120.5 -26.5t-112.5 -67.5v-467q0 -82 27.5 -123t115.5 -51v-74h-481v74q88 0 127 40t39 130v352q0 115 -42 163t-142 48q-78 0 -134.5 -22.5t-117.5 -79.5v-449q0 -92 27.5 -132t115.5 -50v-74h-467z" />
<glyph unicode="n" horiz-adv-x="1173" d="M35 0v74q152 6 151 155v494l-137 78v47l258 96h51v-174h4q63 84 152.5 129t175.5 45q143 0 222 -75.5t79 -241.5v-389q0 -78 29 -116t117 -48v-74h-484v74q90 0 128 42t38 126v340q0 98 -46 161.5t-146 63.5q-72 0 -137.5 -33t-131.5 -88v-444q0 -86 37 -127t129 -41v-74 h-489z" />
<glyph unicode="o" horiz-adv-x="1110" d="M88 467q0 100 36 187t97.5 151.5t145.5 101.5t178 37q104 0 192 -35t151.5 -98t98.5 -150.5t35 -191.5t-35 -194.5t-97.5 -156t-146.5 -103.5t-182 -38q-96 0 -182 39t-150.5 105.5t-102.5 156t-38 189.5zM283 545q0 -68 16 -154t52 -160.5t92.5 -126t136.5 -51.5 q121 0 189.5 78t68.5 213q0 66 -14.5 156t-49.5 172t-93 139t-144 57q-115 0 -184.5 -72.5t-69.5 -250.5z" />
<glyph unicode="p" horiz-adv-x="1148" d="M23 -317q76 0 113.5 42t37.5 107v887l-145 78v47l266 100h51v-153q80 80 160 116.5t174 36.5q84 0 152.5 -31.5t118.5 -90t78 -137.5t28 -175q0 -111 -37 -208t-101.5 -169t-149.5 -114t-183 -42q-121 0 -240 60v-184q0 -102 43 -136t131 -34v-74h-497v74zM346 342 q0 -133 73 -204.5t183 -71.5q131 0 207 90t76 260q0 106 -29 180t-74 119t-96 65.5t-98 20.5q-123 0 -242 -94v-365z" />
<glyph unicode="q" horiz-adv-x="1148" d="M90 424q0 115 36 211t100.5 164.5t155.5 106.5t202 38q88 0 170 -20.5t159 -65.5v64q0 22 21 22h2h33q23 0 22 -22v-1067q0 -82 26.5 -122t112.5 -52v-72h-481v72q88 0 129 36.5t41 128.5v289q-51 -45 -94 -75.5t-82 -49t-77 -27t-79 -8.5q-106 0 -181 41t-123 105.5 t-70.5 144.5t-22.5 158zM252 528q0 -86 24.5 -159.5t67.5 -127t102.5 -84t128.5 -30.5q59 0 111.5 21.5t132.5 78.5v303q0 160 -72.5 249t-201.5 89q-131 0 -212 -93t-81 -247z" />
<glyph unicode="r" horiz-adv-x="768" d="M45 0v74q61 0 106.5 34.5t45.5 122.5v480l-152 75v48l272 110h52v-203h4q35 57 63.5 94t56 60t59.5 32t71 9q35 0 62.5 -12.5t47 -31t30.5 -37.5t11 -36q0 -4 -4 -25.5t-14.5 -45t-25.5 -43t-40 -19.5q-27 0 -44 15.5t-33.5 33t-34 32.5t-41.5 15q-37 0 -72 -31.5 t-96 -119.5v-361q0 -57 7 -95t29.5 -60.5t63.5 -31.5t109 -9v-74h-533z" />
<glyph unicode="s" horiz-adv-x="811" d="M84 690q0 113 83 183.5t216 70.5q164 0 276 -88v-221h-63q-23 123 -73 178t-136 55q-72 0 -113 -35.5t-41 -101.5q0 -57 50.5 -96t120 -71t142 -64.5t116.5 -75.5q33 -33 49 -79t16 -97q0 -127 -84 -199t-229 -72q-78 0 -160 18.5t-141 47.5v258h67q16 -121 71.5 -184.5 t147.5 -63.5q82 0 134.5 41t52.5 105q0 59 -45 93t-112 63.5t-142.5 65.5t-139.5 99q-31 31 -47 78t-16 92z" />
<glyph unicode="t" horiz-adv-x="681" d="M41 819v55q88 31 148.5 91.5t107.5 119.5h70v-163h278v-103h-278v-594q0 -70 26.5 -96.5t116.5 -26.5q31 0 74 3.5t71 7.5v-101q-68 -10 -135 -22.5t-133 -12.5q-102 0 -147 43t-45 138v661h-154z" />
<glyph unicode="u" horiz-adv-x="1173" d="M39 825v74l336 23v-572q0 -117 47 -172t139 -55q68 0 127.5 23.5t132.5 82.5v418q0 61 -7 96t-27.5 53.5t-54.5 23.5t-87 5v74l348 23v-709q0 -69 27 -93q15 -13 48 -13q27 0 65 8v-80l-312 -58v158q-90 -84 -170 -121t-172 -37q-57 0 -107 15.5t-88 47.5t-59.5 83 t-21.5 123v401q0 61 -8.5 96t-26.5 53.5t-50 23.5t-79 5z" />
<glyph unicode="v" horiz-adv-x="980" d="M4 848v74h430v-74q-94 -4 -118 -38q-12 -16 -12 -40q0 -25 13 -57l211 -498l197 449q20 44 20 79q-1 28 -13 51q-28 52 -116 54v74h363v-74q-29 -6 -49.5 -13.5t-35.5 -23.5t-30.5 -42t-34.5 -69l-323 -723h-66l-315 766q-23 57 -45.5 77t-75.5 28z" />
<glyph unicode="w" horiz-adv-x="1492" d="M16 848v74h377v-74q-78 -4 -95 -45q-6 -15 -6 -34q0 -34 19 -81l199 -475l203 453q-23 59 -38.5 94t-33.5 55.5t-42 26.5t-62 6v74h444v-74q-99 -8 -115 -52q-5 -13 -4 -30q0 -43 29 -115l170 -424l182 439q12 31 17.5 62.5t-4 58t-37 44t-78.5 17.5v74h336v-74 q-47 -10 -72 -29.5t-47 -75.5l-318 -766h-65l-225 584l-258 -584h-70l-297 738q-29 74 -49.5 99.5t-59.5 33.5z" />
<glyph unicode="x" horiz-adv-x="1024" d="M20 0v74q45 10 83 36.5t92 84.5l229 245l-291 342q-31 37 -52.5 49.5t-60.5 16.5v74h424v-74q-80 -8 -86 -39q-1 -5 -1 -10q0 -27 28 -60l147 -176l130 142q36 39 36 75q0 11 -4 22q-14 46 -96 46v74h377v-74q-33 -6 -56.5 -14.5t-47 -27t-54.5 -50t-78 -84.5l-149 -168 l293 -336q41 -47 64.5 -67.5t58.5 -26.5v-74h-457v74q97 16 109 49q2 6 3 13q0 30 -40 77l-150 170l-127 -139q-27 -31 -38 -61.5t-3 -54.5t35 -39t76 -15v-74h-394z" />
<glyph unicode="y" horiz-adv-x="980" d="M4 848v74h447v-74q-92 -4 -114 -40q-8 -14 -8 -34q0 -33 21 -82l211 -483l176 448q17 45 17 81q0 29 -10 52q-25 54 -119 58v74h354v-74q-57 -12 -85 -45t-58 -111l-340 -864q-88 -219 -269 -219q-72 0 -118 31.5t-46 85.5q0 35 26 59.5t63 24.5q27 0 42 -10.5t29.5 -23 t30.5 -22.5t43 -10q59 0 99 56.5t81 189.5l-325 737q-20 45 -37 69.5t-33 36t-34.5 13.5t-43.5 2z" />
<glyph unicode="z" horiz-adv-x="892" d="M29 0v33l600 815h-215q-92 0 -153.5 -33t-121.5 -110h-57v251h45q12 -10 21.5 -17t25.5 -11q31 -6 96 -6h568v-74l-578 -774h232q66 0 110.5 15t78.5 44t58.5 69t44.5 89h74l-43 -291h-786z" />
<glyph unicode="{" horiz-adv-x="983" d="M313 498v45q102 14 166 73.5t64 139.5q0 35 -7.5 69.5t-17.5 73.5t-16 79t-6 85q0 74 27.5 138.5t77.5 115.5t118.5 86t150.5 45v-27q-121 -29 -174 -93t-53 -144q0 -33 6 -72t17 -80q10 -41 17 -83t7 -81q0 -111 -80 -204t-215 -144q135 -51 215 -144t80 -204 q0 -39 -7 -81t-17 -83t-16.5 -80t-6.5 -71q0 -80 53.5 -144.5t173.5 -93.5v-27q-82 10 -150.5 45t-118.5 86.5t-77.5 116t-27.5 137.5q0 45 6 86t16 80t17.5 74t7.5 68q0 80 -63.5 139t-166.5 74z" />
<glyph unicode="|" horiz-adv-x="1079" d="M494 -391v1814h90v-1814h-90z" />
<glyph unicode="}" horiz-adv-x="983" d="M113 -381q121 29 174 93.5t53 144.5q0 33 -7 71.5t-18 79.5q-10 41 -16 83t-6 81q0 111 80 204t215 144q-135 51 -215 144.5t-80 203.5q0 39 6 81t16 83t17.5 80t7.5 72q0 80 -53.5 144.5t-173.5 92.5v27q82 -10 150.5 -45t118.5 -86t77.5 -115.5t27.5 -138.5 q0 -45 -7 -85t-17 -79t-16.5 -73.5t-6.5 -69.5q0 -80 63.5 -139.5t166.5 -73.5v-45q-102 -14 -166 -73.5t-64 -139.5q0 -33 6.5 -68t16.5 -74t17 -79.5t7 -86.5q0 -74 -27.5 -138t-77.5 -115.5t-118.5 -86t-150.5 -45.5v27z" />
<glyph unicode="~" horiz-adv-x="960" d="M-66 508q4 76 16.5 123t39.5 88q35 53 90 82.5t115 29.5q41 0 79.5 -9t104.5 -31q37 -14 94 -36t105 -44q86 -39 131 -51.5t82 -12.5q76 0 120.5 48t55.5 134h57q-4 -150 -77 -236.5t-191 -86.5q-31 0 -57.5 4t-66.5 16.5t-99.5 36t-153.5 62.5q-80 35 -127 48t-82 13 q-147 0 -176 -178h-60z" />
<glyph unicode="&#xa1;" horiz-adv-x="598" d="M174 936q0 53 37 90t90 37t89 -37t36 -90t-36 -89t-89 -36t-90 36t-37 89zM184 -301l70 915q2 23 8 31t23 8h28q16 0 22.5 -8t8.5 -31l70 -915q4 -47 -11.5 -68.5t-68.5 -21.5h-70q-53 0 -68.5 21.5t-11.5 68.5z" />
<glyph unicode="&#xa2;" d="M172 451q0 74 26.5 166t91 169.5t171 124.5t264.5 29l102 289h80l-104 -301q176 -43 176 -172q0 -41 -20.5 -65.5t-53.5 -24.5t-51 14t-30.5 35.5t-25 48.5t-34.5 53l-225 -645q39 -18 72.5 -25.5t74.5 -7.5q82 0 149.5 36t102.5 97l47 -30q-14 -59 -49 -108.5t-84 -84.5 t-110.5 -54.5t-129.5 -19.5q-74 0 -135 21l-80 -232h-80l91 259q-113 63 -174.5 176.5t-61.5 251.5zM344 549q0 -125 32 -201t99 -135l221 639q-33 8 -73 8q-119 0 -199 -82t-80 -229z" />
<glyph unicode="&#xa3;" horiz-adv-x="1386" d="M68 -307q0 106 180 207l96 333h-250l17 89h258l104 374q47 164 103.5 298t131 229.5t169 147.5t217.5 52q111 0 180 -37.5t69 -97.5q0 -43 -22.5 -73.5t-52.5 -30.5q-31 0 -57.5 21.5t-56.5 48t-66.5 48t-90.5 21.5q-94 0 -152.5 -85t-102.5 -225.5t-85 -320.5t-102 -370 h260l-22 -89h-265q-16 -49 -29.5 -85.5t-26.5 -68.5t-29.5 -64.5t-39.5 -73.5q51 16 81 21t69 5q84 0 145.5 -34.5t113.5 -76.5t99 -77t103 -35q41 0 69.5 21.5t28.5 52.5q0 27 -11 46t-24.5 36.5t-25 35t-11.5 41.5q0 41 28 73t69 32q45 0 75.5 -38t30.5 -93 q0 -94 -36 -158.5t-86 -105.5t-105 -59.5t-94 -18.5q-86 0 -149.5 45t-124 94t-128 83t-164.5 11q-59 -123 -111 -178t-93 -55q-35 0 -59.5 24.5t-24.5 59.5z" />
<glyph unicode="&#xa4;" horiz-adv-x="1366" d="M184 274l129 127q-47 68 -66.5 129.5t-19.5 137.5q0 74 19.5 135t66.5 131l-129 127l107 106l129 -129q72 47 132 66.5t132 19.5q76 0 136.5 -19.5t131.5 -66.5l127 129l105 -106l-127 -129q47 -68 66.5 -130.5t19.5 -135.5q0 -74 -19.5 -135.5t-66.5 -129.5l127 -127 l-105 -106l-127 127q-70 -47 -130 -66.5t-134 -19.5q-76 0 -138.5 20.5t-129.5 65.5l-129 -127zM377 668q0 -63 24.5 -119.5t66.5 -98.5t98.5 -67t119.5 -25t118.5 25t97.5 67t66.5 98t24.5 120q0 63 -24.5 118.5t-66.5 97.5t-97 66.5t-119 24.5q-63 0 -119.5 -24.5 t-98.5 -66.5t-66.5 -97.5t-24.5 -118.5z" />
<glyph unicode="&#xa5;" horiz-adv-x="1357" d="M-41 1319v78h614v-78q-94 -6 -126.5 -24.5t-32.5 -65.5q0 -35 30 -82l74 -107h473l2 4q31 45 43.5 77t12.5 65q0 74 -54 106q-18 10 -38.5 16.5t-61.5 10.5v78h504v-78q-31 -4 -57.5 -14.5t-53 -32t-56.5 -58t-69 -94.5l-55 -80h221v-82h-278l-263 -372h539v-82h-539 v-191q0 -113 23 -151q18 -37 67.5 -60.5t114.5 -23.5v-78h-628v78q72 0 124 21.5t70 58.5q25 43 25 155v191h-555v82h555l-254 372h-301v82h241l-86 127q-20 33 -35.5 53.5t-29 33t-24.5 20.5t-27 16q-23 14 -48.5 19.5t-60.5 9.5zM575 958l181 -264l178 264h-359z" />
<glyph unicode="&#xa6;" horiz-adv-x="1079" d="M494 229h90v-620h-90v620zM494 801v622h90v-622h-90z" />
<glyph unicode="&#xa7;" horiz-adv-x="874" d="M84 924q0 113 33 206t91 160.5t139 104.5t179 37q111 0 175.5 -38t64.5 -110q0 -35 -23.5 -58.5t-70.5 -23.5q-27 0 -57.5 22.5t-65.5 48t-71 48t-72 22.5q-45 0 -74 -31.5t-29 -78.5q0 -55 36 -124t90 -152t117.5 -179t118 -204.5t90.5 -231.5t36 -256q0 -233 -113 -355 t-328 -122q-106 0 -173.5 40t-67.5 101q0 37 28.5 61.5t71.5 24.5q41 0 67.5 -21.5t53 -48t58.5 -48t81 -21.5q45 0 74.5 32.5t29.5 80.5q0 57 -35.5 123.5t-91 144.5t-118 169t-117.5 195.5t-91 224.5t-36 257zM178 961q0 -125 36 -238t90 -214t115.5 -192.5t115 -175.5 t88 -161.5t32.5 -151.5l4 -4q23 66 31 107t8 98q0 125 -30.5 235.5t-78.5 210.5t-105.5 191.5t-109.5 178.5t-93 171t-56 168h-4q-16 -37 -29.5 -100.5t-13.5 -122.5z" />
<glyph unicode="&#xa8;" horiz-adv-x="681" d="M57 1229q0 45 32 76.5t77 31.5t76.5 -31.5t31.5 -76.5t-31.5 -77t-76.5 -32t-77 32t-32 77zM410 1229q0 45 31.5 76.5t76.5 31.5t77 -31.5t32 -76.5t-32 -77t-77 -32t-76.5 32t-31.5 77z" />
<glyph unicode="&#xa9;" horiz-adv-x="1556" d="M70 688q0 147 55 276.5t151.5 225.5t225.5 151.5t276 55.5t276.5 -55.5t225.5 -151.5t151.5 -225.5t55.5 -276.5t-55.5 -276t-151.5 -225.5t-225 -151.5t-277 -55q-147 0 -276 55t-225.5 151.5t-151.5 225.5t-55 276zM131 688q0 -135 51 -253t138.5 -205t205 -138 t252.5 -51t253 51t205 138t138 205t51 253t-51 253t-138 205t-205 138t-253 51t-252.5 -51t-205 -138t-138.5 -205t-51 -253zM319 682q0 98 38 183t105.5 147.5t159 97.5t197.5 35q45 0 80 -7.5t61.5 -15.5t47 -15t34.5 -7q16 0 26.5 9t21.5 36h38l21 -281h-39 q-72 236 -303 236q-150 0 -236 -104.5t-86 -284.5q0 -205 87 -307.5t249 -102.5q106 0 180 43t127 117l39 -19q-139 -205 -385 -204q-98 0 -183 33.5t-146.5 94t-97.5 141.5t-36 175z" />
<glyph unicode="&#xaa;" horiz-adv-x="641" d="M61 911q0 49 30 82t79 55.5t111.5 41t126.5 38.5v89q0 25 -13.5 42t-32 28t-40 16.5t-37.5 5.5q-41 0 -72 -18.5t-31 -41.5q0 -12 8.5 -24.5t15.5 -23.5t8 -20.5t-11 -15.5l-76 -30q-4 -2 -12.5 6t-15.5 20.5t-13 27.5t-6 28q0 31 19.5 56t52 44.5t77.5 31t97 11.5 q92 0 142 -31t50 -102v-305q0 -41 15.5 -51.5t58.5 12.5l12 -43q-57 -59 -108 -60q-78 0 -88 88q-61 -49 -104.5 -68.5t-92.5 -19.5q-66 0 -108 37t-42 94zM178 940q0 -35 26.5 -56.5t67.5 -21.5q70 0 136 64v153q-59 -23 -103.5 -38t-72 -29.5t-41 -30.5t-13.5 -41z" />
<glyph unicode="&#xab;" horiz-adv-x="704" d="M63 516l304 451h49l-185 -451l185 -450h-49zM375 516l207 365h49l-109 -365l109 -364h-49z" />
<glyph unicode="&#xac;" horiz-adv-x="1366" d="M135 825v158h1096v-631h-158v473h-938z" />
<glyph unicode="&#xad;" horiz-adv-x="747" d="M59 408v155h629v-155h-629z" />
<glyph unicode="&#xae;" horiz-adv-x="1556" d="M70 688q0 147 55 276.5t151.5 225.5t225.5 151.5t276 55.5t276.5 -55.5t225.5 -151.5t151.5 -225.5t55.5 -276.5t-55.5 -276t-151.5 -225.5t-225 -151.5t-277 -55q-147 0 -276 55t-225.5 151.5t-151.5 225.5t-55 276zM131 688q0 -135 51 -253t138.5 -205t205 -138 t252.5 -51t253 51t205 138t138 205t51 253t-51 253t-138 205t-205 138t-253 51t-252.5 -51t-205 -138t-138.5 -205t-51 -253zM375 258v35q59 -2 81.5 20.5t22.5 69.5v612q0 45 -17.5 68.5t-74.5 26.5v34h385q135 0 217 -61.5t82 -163.5q0 -164 -223 -221l209 -297 q35 -51 59.5 -68.5t61.5 -19.5v-35h-185l-295 406h-73v-297q0 -43 27.5 -59.5t88.5 -14.5v-35h-366zM625 707h32q115 0 183.5 46t68.5 136q0 84 -57 137t-145 53q-23 0 -39.5 -2t-42.5 -12v-358z" />
<glyph unicode="&#xaf;" horiz-adv-x="681" d="M23 1165v129h636v-129h-636z" />
<glyph unicode="&#xb0;" horiz-adv-x="817" d="M100 1090q0 63 25 119.5t65.5 97.5t97 65.5t120.5 24.5q63 0 119.5 -24.5t97.5 -65.5t65.5 -97.5t24.5 -119.5t-24.5 -120t-65.5 -98t-97.5 -65.5t-119.5 -24.5t-120 24.5t-97.5 65.5t-65.5 97.5t-25 120.5zM199 1090q0 -43 16 -81t45 -67t67 -45t81 -16t80.5 16t66.5 45 t45 67t16 81t-16 80.5t-45 66.5t-66.5 45t-80.5 16t-81 -16t-67 -45t-45 -66.5t-16 -80.5z" />
<glyph unicode="&#xb1;" horiz-adv-x="1366" d="M135 0v158h1096v-158h-1096zM135 805v158h469v464h158v-464h469v-158h-469v-465h-158v465h-469z" />
<glyph unicode="&#xb2;" horiz-adv-x="704" d="M74 653v45q90 84 163.5 147.5t126 114t81 93.5t28.5 86q0 55 -38 94t-93 39q-53 0 -108.5 -42t-90.5 -120l-65 23q100 227 297 227q100 0 168.5 -57.5t68.5 -143.5q0 -61 -30.5 -104t-84 -84t-125 -91.5t-155.5 -127.5h236q51 0 80.5 18t52.5 70h65l-63 -187h-514z" />
<glyph unicode="&#xb3;" horiz-adv-x="681" d="M47 692l33 43q45 -23 81 -31t72 -8q49 0 93.5 14.5t77 40t52 60.5t19.5 74q0 53 -38 89t-91 36q-59 0 -131 -43l-27 47q68 35 112 60.5t69.5 46t36 40t10.5 39.5q0 35 -28 57.5t-66 22.5q-45 0 -98.5 -26.5t-108.5 -82.5l-52 33q57 74 136.5 115t156.5 41q86 0 140.5 -37 t54.5 -94q0 -41 -29.5 -75t-95.5 -71v-4q90 -4 137 -56t47 -116q0 -53 -28.5 -101t-77.5 -85t-114.5 -58.5t-137.5 -21.5q-59 0 -112.5 13.5t-92.5 37.5z" />
<glyph unicode="&#xb4;" horiz-adv-x="681" d="M238 1075l104 346h223l-295 -346h-32z" />
<glyph unicode="&#xb5;" horiz-adv-x="1024" d="M55 -326q0 43 9.5 76t19.5 78t19.5 111.5t9.5 175.5v807h172v-586q0 -127 34.5 -181.5t106.5 -54.5q59 0 117.5 32t111.5 101v689h172v-727q0 -55 20.5 -82t45.5 -27q61 0 80 123h43q-2 -61 -19.5 -104.5t-45 -72t-62.5 -42t-72 -13.5q-72 0 -108.5 40t-53.5 151 q-86 -102 -156.5 -146.5t-152.5 -44.5q-53 0 -89 20.5t-64 68.5h-5q0 -86 8.5 -142.5t17.5 -98.5t16.5 -76t7.5 -75q0 -47 -27 -78.5t-68 -31.5t-64.5 29.5t-23.5 80.5z" />
<glyph unicode="&#xb6;" horiz-adv-x="927" d="M-8 1024q0 180 117.5 276.5t330.5 96.5h494v-56h-131v-1732h-74v1732h-186v-1732h-74v1034q-100 0 -188 18.5t-151.5 63.5t-100.5 117.5t-37 181.5z" />
<glyph unicode="&#xb7;" horiz-adv-x="598" d="M172 672q0 53 36 89t89 36t90 -36t37 -89t-37 -90t-90 -37t-89 36.5t-36 90.5z" />
<glyph unicode="&#xb8;" horiz-adv-x="681" d="M156 -340l8 33q29 -6 44 -8t30 -2q53 0 92 31.5t39 78.5q0 94 -144 111l133 71q92 -8 131 -49t39 -90q0 -41 -19.5 -75.5t-53 -61.5t-80.5 -41t-101 -14q-27 0 -51 3t-67 13z" />
<glyph unicode="&#xb9;" horiz-adv-x="681" d="M162 653v52h35q45 0 63.5 21.5t18.5 70.5v370q0 47 -15.5 67.5t-64.5 20.5h-33v52q82 0 128 15t68 38h56v-563q0 -92 80 -92h30v-52h-366z" />
<glyph unicode="&#xba;" horiz-adv-x="724" d="M59 1081q0 57 23.5 107.5t64.5 88.5t94.5 60.5t114.5 22.5q68 0 125.5 -21.5t98.5 -59.5t63.5 -90t22.5 -114q0 -63 -22.5 -116.5t-62.5 -93.5t-95.5 -62.5t-118.5 -22.5t-120 23.5t-97.5 64.5t-65.5 96.5t-25 116.5zM186 1118q0 -127 55.5 -207t139.5 -80q72 0 120 48.5 t48 121.5q0 31 -8.5 82.5t-30 101.5t-60 87t-100.5 37q-164 -1 -164 -191z" />
<glyph unicode="&#xbb;" horiz-adv-x="704" d="M74 152l108 364l-108 365h49l207 -365l-207 -364h-49zM289 66l184 450l-184 451h49l303 -451l-303 -450h-49z" />
<glyph unicode="&#xbc;" horiz-adv-x="1855" d="M147 653v52h35q45 0 63.5 21.5t18.5 70.5v370q0 47 -15.5 67.5t-64.5 20.5h-32v52q82 0 128 15t68 38h55v-563q0 -92 80 -92h31v-52h-367zM371 -45l944 1491h108l-944 -1491h-108zM1081 195v69l353 443h116v-447q37 0 62 66h63l-20 -131h-105v-72q0 -37 19.5 -54.5 t85.5 -17.5v-51h-352v51q59 0 83.5 13.5t24.5 56.5v74h-330zM1161 260h250v318h-4z" />
<glyph unicode="&#xbd;" horiz-adv-x="1855" d="M147 653v52h35q45 0 63.5 21.5t18.5 70.5v370q0 47 -15.5 67.5t-64.5 20.5h-32v52q82 0 128 15t68 38h55v-563q0 -92 80 -92h31v-52h-367zM330 -45l944 1491h108l-944 -1491h-108zM1077 0v45q90 84 164 147.5t126 113.5t81 93t29 86q0 55 -38 94t-93 39 q-53 0 -108.5 -41.5t-90.5 -119.5l-66 22q100 227 297 228q100 0 169 -57.5t69 -143.5q0 -61 -31 -104.5t-84 -84.5t-124.5 -91t-155.5 -128h235q51 0 81 18.5t52 69.5h66l-64 -186h-514z" />
<glyph unicode="&#xbe;" horiz-adv-x="1855" d="M90 692l33 43q45 -23 81 -31t72 -8q49 0 93.5 14.5t77 40t52 60.5t19.5 74q0 53 -38 89t-91 36q-59 0 -131 -43l-27 47q68 35 112 60.5t69.5 46t36 40t10.5 39.5q0 35 -28 57.5t-66 22.5q-45 0 -98.5 -26.5t-108.5 -82.5l-52 33q57 74 135 115t156 41q88 0 142.5 -37 t54.5 -94q0 -41 -29.5 -75t-95.5 -71v-4q90 -4 137 -56t47 -116q0 -53 -28.5 -101t-77.5 -85t-114.5 -58.5t-137.5 -21.5q-59 0 -112.5 13.5t-92.5 37.5zM412 -45l944 1491h108l-944 -1491h-108zM1122 195v69l353 443h116v-447q37 0 62 66h63l-20 -131h-105v-72 q0 -37 19.5 -54.5t85.5 -17.5v-51h-353v51q59 0 84 13.5t25 56.5v74h-330zM1202 260h250v318h-4z" />
<glyph unicode="&#xbf;" horiz-adv-x="788" d="M63 162q0 57 18.5 107t59.5 91t84 63.5t85 38t78 31t63 42.5q23 23 29.5 60.5t8.5 86.5h74q0 -74 5 -124t10.5 -85t10.5 -57.5t5 -38.5q0 -25 -12 -37t-51 -21.5t-87.5 -21.5t-99.5 -32.5t-90 -59.5q-29 -29 -45 -64t-16 -69q0 -51 24.5 -104.5t64.5 -96.5t88 -70.5 t95 -27.5q29 0 49.5 7t38.5 15t36.5 15.5t41.5 7.5q39 0 62.5 -23.5t23.5 -60.5q0 -57 -49.5 -91t-130.5 -34q-106 0 -194.5 68.5t-150 160.5t-95.5 184.5t-34 139.5zM393 936q0 53 37 90t90 37t89 -37t36 -90t-36 -89t-89 -36t-90 36t-37 89z" />
<glyph unicode="&#xc0;" horiz-adv-x="1472" d="M6 0v78q41 10 68.5 26.5t49 43t40 65.5t41.5 94l411 1024l-32 66h219l508 -1182q31 -72 64.5 -104.5t90.5 -32.5v-78h-573v78q123 12 156.5 68.5t-5.5 148.5l-104 250h-541l-73 -193q-20 -53 -21.5 -102t18 -86t58.5 -59.5t96 -26.5v-78h-471zM442 655h451l-231 555z M514 1859h223l104 -346h-32z" />
<glyph unicode="&#xc1;" horiz-adv-x="1472" d="M6 0v78q41 10 68.5 26.5t49 43t40 65.5t41.5 94l411 1024l-32 66h219l508 -1182q31 -72 64.5 -104.5t90.5 -32.5v-78h-573v78q123 12 156.5 68.5t-5.5 148.5l-104 250h-541l-73 -193q-20 -53 -21.5 -102t18 -86t58.5 -59.5t96 -26.5v-78h-471zM442 655h451l-231 555z M633 1513l104 346h223l-295 -346h-32z" />
<glyph unicode="&#xc2;" horiz-adv-x="1472" d="M6 0v78q41 10 68.5 26.5t49 43t40 65.5t41.5 94l411 1024l-32 66h219l508 -1182q31 -72 64.5 -104.5t90.5 -32.5v-78h-573v78q123 12 156.5 68.5t-5.5 148.5l-104 250h-541l-73 -193q-20 -53 -21.5 -102t18 -86t58.5 -59.5t96 -26.5v-78h-471zM442 655h451l-231 555z M454 1505l189 330h184l191 -330h-31l-273 215l-229 -215h-31z" />
<glyph unicode="&#xc3;" horiz-adv-x="1472" d="M6 0v78q41 10 68.5 26.5t49 43t40 65.5t41.5 94l411 1024l-32 66h219l508 -1182q31 -72 64.5 -104.5t90.5 -32.5v-78h-573v78q123 12 156.5 68.5t-5.5 148.5l-104 250h-541l-73 -193q-20 -53 -21.5 -102t18 -86t58.5 -59.5t96 -26.5v-78h-471zM418 1542q4 127 52 193.5 t136 66.5q49 0 94 -22.5t86 -48t77 -48t67 -22.5q80 0 96 141h31v-18q0 -109 -53.5 -177.5t-139.5 -68.5q-49 0 -93 22.5t-85 48.5q-41 27 -77 48.5t-69 21.5q-41 0 -63.5 -39t-28.5 -98h-30zM442 655h451l-231 555z" />
<glyph unicode="&#xc4;" horiz-adv-x="1472" d="M6 0v78q41 10 68.5 26.5t49 43t40 65.5t41.5 94l411 1024l-32 66h219l508 -1182q31 -72 64.5 -104.5t90.5 -32.5v-78h-573v78q123 12 156.5 68.5t-5.5 148.5l-104 250h-541l-73 -193q-20 -53 -21.5 -102t18 -86t58.5 -59.5t96 -26.5v-78h-471zM442 655h451l-231 555z M452 1667q0 45 32 76.5t77 31.5t76.5 -31.5t31.5 -76.5t-31.5 -77t-76.5 -32t-77 32t-32 77zM805 1667q0 45 31.5 76.5t76.5 31.5t77 -31.5t32 -76.5t-32 -77t-77 -32t-76.5 32t-31.5 77z" />
<glyph unicode="&#xc5;" horiz-adv-x="1472" d="M6 0v78q41 10 68.5 26.5t49 43t40 65.5t41.5 94l411 1024l-32 66h219l508 -1182q31 -72 64.5 -104.5t90.5 -32.5v-78h-573v78q123 12 156.5 68.5t-5.5 148.5l-104 250h-541l-73 -193q-20 -53 -21.5 -102t18 -86t58.5 -59.5t96 -26.5v-78h-471zM442 655h451l-231 555z M545 1669q0 80 55 135t135 55t136 -55t56 -135t-56 -136.5t-136 -56.5t-135 56.5t-55 136.5zM614 1669q0 -51 35 -87t86 -36t87 36t36 87t-36 86t-87 35t-86 -35t-35 -86z" />
<glyph unicode="&#xc6;" horiz-adv-x="2048" d="M-37 0v78q59 8 99 48t73 112l404 880q47 104 15 151.5t-124 49.5v78h1215l98 -312h-72q-66 70 -109.5 114t-84.5 68.5t-87.5 33t-113.5 8.5h-406l185 -541h319q111 0 146.5 43t15.5 158h78l166 -486h-84q-61 111 -133 154t-142 43h-340l123 -379q23 -66 39.5 -107.5 t41 -65.5t61 -32t96.5 -8h94q63 0 105 8t80 37t81 82t107 143h78l-78 -358h-1090v78q127 0 160 59.5t-8 186.5l-117 356h-424l-121 -264q-29 -61 -40 -122t3.5 -108t57.5 -76.5t123 -31.5v-78h-490zM471 768h360l-149 451z" />
<glyph unicode="&#xc7;" horiz-adv-x="1599" d="M127 678q0 135 50 267t151.5 238.5t253 172t356.5 65.5q115 0 232.5 -24.5t246.5 -71.5l49 -326h-65q-72 154 -202 244t-284 90q-104 0 -201.5 -39t-173 -116.5t-120.5 -193.5t-45 -271q0 -131 38 -249t110.5 -207t178 -141.5t242.5 -52.5q174 0 296 85t161 260h76 l-11 -322q-57 -25 -128.5 -44t-146.5 -34.5t-147.5 -24t-134.5 -8.5q-172 0 -315 52.5t-247.5 145.5t-162 222t-57.5 283zM575 -340l9 33q29 -6 44 -8t29 -2q53 0 92 31.5t39 78.5q0 94 -143 111l133 71q92 -8 131 -49t39 -90q0 -41 -19.5 -75.5t-53 -61.5t-80.5 -41 t-101 -14q-27 0 -51.5 3t-67.5 13z" />
<glyph unicode="&#xc8;" horiz-adv-x="1386" d="M53 0v78q117 0 168 48t51 161v823q0 102 -47 155.5t-172 53.5v78h1184v-312h-74q-27 70 -61.5 113t-76.5 67.5t-94 34t-116 9.5h-328v-537h275q145 0 205.5 43t68.5 154h84v-494h-84q-18 117 -77.5 163t-192.5 46h-279v-338q0 -74 11.5 -123t39 -79.5t73.5 -43t116 -12.5 h102q86 0 149.5 12.5t113 42t88.5 78.5t75 121h93l-93 -342h-1202zM471 1859h223l104 -346h-32z" />
<glyph unicode="&#xc9;" horiz-adv-x="1386" d="M53 0v78q117 0 168 48t51 161v823q0 102 -47 155.5t-172 53.5v78h1184v-312h-74q-27 70 -61.5 113t-76.5 67.5t-94 34t-116 9.5h-328v-537h275q145 0 205.5 43t68.5 154h84v-494h-84q-18 117 -77.5 163t-192.5 46h-279v-338q0 -74 11.5 -123t39 -79.5t73.5 -43t116 -12.5 h102q86 0 149.5 12.5t113 42t88.5 78.5t75 121h93l-93 -342h-1202zM590 1513l104 346h223l-295 -346h-32z" />
<glyph unicode="&#xca;" horiz-adv-x="1386" d="M53 0v78q117 0 168 48t51 161v823q0 102 -47 155.5t-172 53.5v78h1184v-312h-74q-27 70 -61.5 113t-76.5 67.5t-94 34t-116 9.5h-328v-537h275q145 0 205.5 43t68.5 154h84v-494h-84q-18 117 -77.5 163t-192.5 46h-279v-338q0 -74 11.5 -123t39 -79.5t73.5 -43t116 -12.5 h102q86 0 149.5 12.5t113 42t88.5 78.5t75 121h93l-93 -342h-1202zM411 1505l189 330h184l191 -330h-31l-273 215l-229 -215h-31z" />
<glyph unicode="&#xcb;" horiz-adv-x="1386" d="M53 0v78q117 0 168 48t51 161v823q0 102 -47 155.5t-172 53.5v78h1184v-312h-74q-27 70 -61.5 113t-76.5 67.5t-94 34t-116 9.5h-328v-537h275q145 0 205.5 43t68.5 154h84v-494h-84q-18 117 -77.5 163t-192.5 46h-279v-338q0 -74 11.5 -123t39 -79.5t73.5 -43t116 -12.5 h102q86 0 149.5 12.5t113 42t88.5 78.5t75 121h93l-93 -342h-1202zM409 1667q0 45 32 76.5t77 31.5t76.5 -31.5t31.5 -76.5t-31.5 -77t-76.5 -32t-77 32t-32 77zM762 1667q0 45 31.5 76.5t76.5 31.5t77 -31.5t32 -76.5t-32 -77t-77 -32t-76.5 32t-31.5 77z" />
<glyph unicode="&#xcc;" horiz-adv-x="768" d="M55 0v78q72 0 116 13t67.5 43t32 74t8.5 105v787q0 115 -46.5 167t-177.5 52v78h658v-78q-113 0 -166 -46t-53 -165v-823q0 -100 45 -153.5t174 -53.5v-78h-658zM162 1859h223l104 -346h-32z" />
<glyph unicode="&#xcd;" horiz-adv-x="768" d="M55 0v78q72 0 116 13t67.5 43t32 74t8.5 105v787q0 115 -46.5 167t-177.5 52v78h658v-78q-113 0 -166 -46t-53 -165v-823q0 -100 45 -153.5t174 -53.5v-78h-658zM281 1513l104 346h223l-295 -346h-32z" />
<glyph unicode="&#xce;" horiz-adv-x="768" d="M55 0v78q72 0 116 13t67.5 43t32 74t8.5 105v787q0 115 -46.5 167t-177.5 52v78h658v-78q-113 0 -166 -46t-53 -165v-823q0 -100 45 -153.5t174 -53.5v-78h-658zM102 1505l189 330h184l191 -330h-31l-273 215l-229 -215h-31z" />
<glyph unicode="&#xcf;" horiz-adv-x="768" d="M55 0v78q72 0 116 13t67.5 43t32 74t8.5 105v787q0 115 -46.5 167t-177.5 52v78h658v-78q-113 0 -166 -46t-53 -165v-823q0 -100 45 -153.5t174 -53.5v-78h-658zM100 1667q0 45 32 76.5t77 31.5t76.5 -31.5t31.5 -76.5t-31.5 -77t-76.5 -32t-77 32t-32 77zM453 1667 q0 45 31.5 76.5t76.5 31.5t77 -31.5t32 -76.5t-32 -77t-77 -32t-76.5 32t-31.5 77z" />
<glyph unicode="&#xd0;" horiz-adv-x="1728" d="M59 0v78q129 0 179.5 45t50.5 162v391h-230v96h230v326q0 49 -9.5 90t-34 70.5t-69.5 45t-117 15.5v78h795q197 0 332 -51.5t239 -155.5q117 -117 162 -234.5t45 -246.5q0 -119 -45 -245t-141 -229.5t-246.5 -169t-361.5 -65.5h-779zM504 305q0 -98 57 -157.5t158 -59.5 h117q137 0 238.5 47t169 126t100 181.5t32.5 214.5q0 121 -36.5 238t-118.5 209t-209 148.5t-310 56.5h-198v-537h436v-96h-436v-371z" />
<glyph unicode="&#xd1;" horiz-adv-x="1728" d="M14 1319v78h332l1047 -1061v670q-2 61 -11.5 117.5t-35 99.5t-72.5 69.5t-125 26.5v78h551v-78q-117 0 -168 -86t-51 -227v-641q0 -76 6 -127.5t14 -91.5t16.5 -76.5t10.5 -85.5h-135q-47 66 -88 114.5t-76 83.5l-848 869v-711q0 -141 61.5 -201.5t188.5 -60.5v-78h-586 v78q135 0 192.5 48t55.5 175v844l-90 90q-51 47 -90 62.5t-99 21.5zM547 1542q4 127 52 193.5t136 66.5q49 0 94 -22.5t86 -48t77 -48t67 -22.5q80 0 96 141h31v-18q0 -109 -53.5 -177.5t-139.5 -68.5q-49 0 -93 22.5t-85 48.5q-41 27 -77 48.5t-69 21.5q-41 0 -63.5 -39 t-28.5 -98h-30z" />
<glyph unicode="&#xd2;" horiz-adv-x="1665" d="M109 672q0 186 62 326.5t164.5 234.5t232.5 141t266 47q156 0 287.5 -55t229 -152.5t151.5 -230.5t54 -291q0 -152 -58 -282.5t-159.5 -227t-239.5 -152t-298 -55.5q-137 0 -263 50.5t-221.5 142.5t-151.5 220t-56 284zM356 782q0 -141 33 -270t96.5 -229.5t158.5 -160 t218 -59.5q100 0 183 40t141.5 112t90.5 174.5t32 224.5q0 133 -32 262.5t-96.5 230.5t-159.5 163.5t-224 62.5q-92 0 -172 -35.5t-140.5 -104.5t-94.5 -172.5t-34 -238.5zM611 1859h223l104 -346h-32z" />
<glyph unicode="&#xd3;" horiz-adv-x="1665" d="M109 672q0 186 62 326.5t164.5 234.5t232.5 141t266 47q156 0 287.5 -55t229 -152.5t151.5 -230.5t54 -291q0 -152 -58 -282.5t-159.5 -227t-239.5 -152t-298 -55.5q-137 0 -263 50.5t-221.5 142.5t-151.5 220t-56 284zM356 782q0 -141 33 -270t96.5 -229.5t158.5 -160 t218 -59.5q100 0 183 40t141.5 112t90.5 174.5t32 224.5q0 133 -32 262.5t-96.5 230.5t-159.5 163.5t-224 62.5q-92 0 -172 -35.5t-140.5 -104.5t-94.5 -172.5t-34 -238.5zM730 1513l104 346h223l-295 -346h-32z" />
<glyph unicode="&#xd4;" horiz-adv-x="1665" d="M109 672q0 186 62 326.5t164.5 234.5t232.5 141t266 47q156 0 287.5 -55t229 -152.5t151.5 -230.5t54 -291q0 -152 -58 -282.5t-159.5 -227t-239.5 -152t-298 -55.5q-137 0 -263 50.5t-221.5 142.5t-151.5 220t-56 284zM356 782q0 -141 33 -270t96.5 -229.5t158.5 -160 t218 -59.5q100 0 183 40t141.5 112t90.5 174.5t32 224.5q0 133 -32 262.5t-96.5 230.5t-159.5 163.5t-224 62.5q-92 0 -172 -35.5t-140.5 -104.5t-94.5 -172.5t-34 -238.5zM551 1505l189 330h184l191 -330h-31l-273 215l-229 -215h-31z" />
<glyph unicode="&#xd5;" horiz-adv-x="1665" d="M109 672q0 186 62 326.5t164.5 234.5t232.5 141t266 47q156 0 287.5 -55t229 -152.5t151.5 -230.5t54 -291q0 -152 -58 -282.5t-159.5 -227t-239.5 -152t-298 -55.5q-137 0 -263 50.5t-221.5 142.5t-151.5 220t-56 284zM356 782q0 -141 33 -270t96.5 -229.5t158.5 -160 t218 -59.5q100 0 183 40t141.5 112t90.5 174.5t32 224.5q0 133 -32 262.5t-96.5 230.5t-159.5 163.5t-224 62.5q-92 0 -172 -35.5t-140.5 -104.5t-94.5 -172.5t-34 -238.5zM515 1542q4 127 52 193.5t136 66.5q49 0 94 -22.5t86 -48t77 -48t67 -22.5q80 0 96 141h31v-18 q0 -109 -53.5 -177.5t-139.5 -68.5q-49 0 -93 22.5t-85 48.5q-41 27 -77 48.5t-69 21.5q-41 0 -63.5 -39t-28.5 -98h-30z" />
<glyph unicode="&#xd6;" horiz-adv-x="1665" d="M109 672q0 186 62 326.5t164.5 234.5t232.5 141t266 47q156 0 287.5 -55t229 -152.5t151.5 -230.5t54 -291q0 -152 -58 -282.5t-159.5 -227t-239.5 -152t-298 -55.5q-137 0 -263 50.5t-221.5 142.5t-151.5 220t-56 284zM356 782q0 -141 33 -270t96.5 -229.5t158.5 -160 t218 -59.5q100 0 183 40t141.5 112t90.5 174.5t32 224.5q0 133 -32 262.5t-96.5 230.5t-159.5 163.5t-224 62.5q-92 0 -172 -35.5t-140.5 -104.5t-94.5 -172.5t-34 -238.5zM549 1667q0 45 32 76.5t77 31.5t76.5 -31.5t31.5 -76.5t-31.5 -77t-76.5 -32t-77 32t-32 77z M902 1667q0 45 31.5 76.5t76.5 31.5t77 -31.5t32 -76.5t-32 -77t-77 -32t-76.5 32t-31.5 77z" />
<glyph unicode="&#xd7;" horiz-adv-x="1368" d="M176 1063l111 111l397 -398l397 398l111 -111l-397 -397l397 -398l-111 -110l-397 397l-395 -395l-111 110l395 396z" />
<glyph unicode="&#xd8;" horiz-adv-x="1665" d="M109 680q0 160 54 296t151.5 235.5t230.5 154.5t291 55q240 0 421 -129l134 160l67 -59l-131 -156q111 -106 170 -246.5t59 -298.5q0 -154 -58 -285t-159.5 -227t-239.5 -150.5t-300 -54.5q-117 0 -220.5 33t-187.5 103l-141 -170l-64 59l140 164q-115 109 -166 230.5 t-51 285.5zM356 788q0 -123 28 -246.5t75 -215.5l690 833q-63 82 -155.5 128t-196.5 46q-92 0 -173 -38t-140.5 -108.5t-93.5 -172t-34 -226.5zM508 248q68 -90 159 -137.5t195 -47.5q100 0 183 40t141.5 113t90.5 174.5t32 225.5q0 123 -29 245t-82 218z" />
<glyph unicode="&#xd9;" horiz-adv-x="1705" d="M35 1319v78h672v-78q-133 0 -183.5 -47t-50.5 -166v-637q0 -172 114.5 -271.5t321.5 -99.5q86 0 168 24.5t145.5 78t101.5 137.5t38 205v536q0 55 -10.5 99.5t-38 76t-73.5 48t-120 16.5v78h551v-78q-96 0 -156.5 -47t-60.5 -168v-578q0 -158 -48 -263t-130 -169.5 t-189.5 -91.5t-226.5 -27q-158 0 -271.5 37t-187 99.5t-108.5 144.5t-35 172v694q0 92 -45 144.5t-178 52.5zM631 1859h223l104 -346h-32z" />
<glyph unicode="&#xda;" horiz-adv-x="1705" d="M35 1319v78h672v-78q-133 0 -183.5 -47t-50.5 -166v-637q0 -172 114.5 -271.5t321.5 -99.5q86 0 168 24.5t145.5 78t101.5 137.5t38 205v536q0 55 -10.5 99.5t-38 76t-73.5 48t-120 16.5v78h551v-78q-96 0 -156.5 -47t-60.5 -168v-578q0 -158 -48 -263t-130 -169.5 t-189.5 -91.5t-226.5 -27q-158 0 -271.5 37t-187 99.5t-108.5 144.5t-35 172v694q0 92 -45 144.5t-178 52.5zM750 1513l104 346h223l-295 -346h-32z" />
<glyph unicode="&#xdb;" horiz-adv-x="1705" d="M35 1319v78h672v-78q-133 0 -183.5 -47t-50.5 -166v-637q0 -172 114.5 -271.5t321.5 -99.5q86 0 168 24.5t145.5 78t101.5 137.5t38 205v536q0 55 -10.5 99.5t-38 76t-73.5 48t-120 16.5v78h551v-78q-96 0 -156.5 -47t-60.5 -168v-578q0 -158 -48 -263t-130 -169.5 t-189.5 -91.5t-226.5 -27q-158 0 -271.5 37t-187 99.5t-108.5 144.5t-35 172v694q0 92 -45 144.5t-178 52.5zM571 1505l189 330h184l191 -330h-31l-273 215l-229 -215h-31z" />
<glyph unicode="&#xdc;" horiz-adv-x="1705" d="M35 1319v78h672v-78q-133 0 -183.5 -47t-50.5 -166v-637q0 -172 114.5 -271.5t321.5 -99.5q86 0 168 24.5t145.5 78t101.5 137.5t38 205v536q0 55 -10.5 99.5t-38 76t-73.5 48t-120 16.5v78h551v-78q-96 0 -156.5 -47t-60.5 -168v-578q0 -158 -48 -263t-130 -169.5 t-189.5 -91.5t-226.5 -27q-158 0 -271.5 37t-187 99.5t-108.5 144.5t-35 172v694q0 92 -45 144.5t-178 52.5zM569 1667q0 45 32 76.5t77 31.5t76.5 -31.5t31.5 -76.5t-31.5 -77t-76.5 -32t-77 32t-32 77zM922 1667q0 45 31.5 76.5t76.5 31.5t77 -31.5t32 -76.5t-32 -77 t-77 -32t-76.5 32t-31.5 77z" />
<glyph unicode="&#xdd;" horiz-adv-x="1472" d="M16 1319v78h615v-78q-123 0 -150.5 -50t27.5 -130l305 -445l238 348q37 53 49 102.5t-0.5 87.5t-49 61.5t-98.5 25.5v78h504v-78q-31 -4 -57.5 -15.5t-54 -34t-57.5 -59t-66 -90.5l-375 -534v-316q0 -193 205 -192v-78h-629v78q102 0 155.5 45t53.5 149v314l-428 626 q-35 53 -78 77t-109 30zM633 1513l104 346h223l-295 -346h-32z" />
<glyph unicode="&#xde;" horiz-adv-x="1300" d="M68 0v78q106 0 157 47t51 151v861q0 106 -57 144t-151 38v78h634v-78q-98 0 -154 -42t-56 -147v-43h272q139 0 232.5 -33.5t148.5 -87t78.5 -120t23.5 -131.5q0 -55 -20.5 -124t-78.5 -130.5t-162.5 -103.5t-274.5 -42h-219v-55q0 -82 52 -133t183 -51v-76h-659zM492 403 h182q94 0 156.5 27t100.5 69t53 92t15 99q0 47 -14 101.5t-52 100.5t-103.5 76.5t-165.5 30.5h-172v-596z" />
<glyph unicode="&#xdf;" horiz-adv-x="1173" d="M45 0v78q82 8 119 59t37 137v537h-156v70q0 20 15.5 23t37 3t44 2t38.5 19q29 29 36 71.5t15.5 95t29 109t73.5 109.5q59 59 128.5 89t172.5 30q86 0 156.5 -21.5t122 -61.5t80 -95.5t28.5 -120.5q0 -104 -66.5 -171t-222.5 -120v-4q100 -12 169 -57.5t110 -106 t59.5 -130t18.5 -130.5q0 -59 -20.5 -133t-61.5 -139.5t-105.5 -110.5t-150.5 -45q-92 0 -139.5 40t-47.5 95q0 39 24.5 63.5t59.5 24.5q43 0 54.5 -24.5t16.5 -53.5t16.5 -53.5t54.5 -24.5q57 0 95 74t38 182q0 66 -19.5 142.5t-62.5 145.5t-110.5 119t-162.5 62v86 q141 23 203 92.5t62 165.5q0 47 -18.5 87t-49.5 70t-74 47t-92 17q-104 0 -165.5 -72.5t-61.5 -221.5v-779q0 -92 20.5 -136t93.5 -60v-74h-442z" />
<glyph unicode="&#xe0;" horiz-adv-x="980" d="M92 197q0 96 72 160.5t242 121.5l219 76v139q0 45 -19.5 76t-49.5 50.5t-62.5 27.5t-57.5 8q-59 0 -108 -30.5t-49 -65.5q0 -16 12 -37t23.5 -40t13.5 -35.5t-19 -26.5l-121 -58q-4 -2 -15 13.5t-22.5 38t-20.5 48t-9 42.5q0 37 21.5 78.5t66.5 77.5t116.5 59.5 t172.5 23.5q147 0 223 -51t76 -168v-524q0 -57 30.5 -72.5t83.5 18.5l19 -73q-45 -51 -85 -74t-81 -23q-59 0 -95 38t-44 110q-90 -80 -159 -114t-144 -34q-100 0 -165 61.5t-65 158.5zM274 248q0 -47 33 -90t111 -43q106 0 207 106v256l-109 -41q-125 -47 -183.5 -85 t-58.5 -103zM289 1421h223l104 -346h-32z" />
<glyph unicode="&#xe1;" horiz-adv-x="980" d="M92 197q0 96 72 160.5t242 121.5l219 76v139q0 45 -19.5 76t-49.5 50.5t-62.5 27.5t-57.5 8q-59 0 -108 -30.5t-49 -65.5q0 -16 12 -37t23.5 -40t13.5 -35.5t-19 -26.5l-121 -58q-4 -2 -15 13.5t-22.5 38t-20.5 48t-9 42.5q0 37 21.5 78.5t66.5 77.5t116.5 59.5 t172.5 23.5q147 0 223 -51t76 -168v-524q0 -57 30.5 -72.5t83.5 18.5l19 -73q-45 -51 -85 -74t-81 -23q-59 0 -95 38t-44 110q-90 -80 -159 -114t-144 -34q-100 0 -165 61.5t-65 158.5zM274 248q0 -47 33 -90t111 -43q106 0 207 106v256l-109 -41q-125 -47 -183.5 -85 t-58.5 -103zM388 1075l104 346h223l-295 -346h-32z" />
<glyph unicode="&#xe2;" horiz-adv-x="980" d="M92 197q0 96 72 160.5t242 121.5l219 76v139q0 45 -19.5 76t-49.5 50.5t-62.5 27.5t-57.5 8q-59 0 -108 -30.5t-49 -65.5q0 -16 12 -37t23.5 -40t13.5 -35.5t-19 -26.5l-121 -58q-4 -2 -15 13.5t-22.5 38t-20.5 48t-9 42.5q0 37 21.5 78.5t66.5 77.5t116.5 59.5 t172.5 23.5q147 0 223 -51t76 -168v-524q0 -57 30.5 -72.5t83.5 18.5l19 -73q-45 -51 -85 -74t-81 -23q-59 0 -95 38t-44 110q-90 -80 -159 -114t-144 -34q-100 0 -165 61.5t-65 158.5zM209 1067l189 330h184l191 -330h-31l-273 215l-229 -215h-31zM274 248q0 -47 33 -90 t111 -43q106 0 207 106v256l-109 -41q-125 -47 -183.5 -85t-58.5 -103z" />
<glyph unicode="&#xe3;" horiz-adv-x="980" d="M92 197q0 96 72 160.5t242 121.5l219 76v139q0 45 -19.5 76t-49.5 50.5t-62.5 27.5t-57.5 8q-59 0 -108 -30.5t-49 -65.5q0 -16 12 -37t23.5 -40t13.5 -35.5t-19 -26.5l-121 -58q-4 -2 -15 13.5t-22.5 38t-20.5 48t-9 42.5q0 37 21.5 78.5t66.5 77.5t116.5 59.5 t172.5 23.5q147 0 223 -51t76 -168v-524q0 -57 30.5 -72.5t83.5 18.5l19 -73q-45 -51 -85 -74t-81 -23q-59 0 -95 38t-44 110q-90 -80 -159 -114t-144 -34q-100 0 -165 61.5t-65 158.5zM173 1104q4 127 52 193.5t136 66.5q49 0 94 -22.5t86 -48t77 -48t67 -22.5q80 0 96 141 h31v-18q0 -109 -53.5 -177.5t-139.5 -68.5q-49 0 -93 22.5t-85 48.5q-41 27 -77 48.5t-69 21.5q-41 0 -63.5 -39t-28.5 -98h-30zM274 248q0 -47 33 -90t111 -43q106 0 207 106v256l-109 -41q-125 -47 -183.5 -85t-58.5 -103z" />
<glyph unicode="&#xe4;" horiz-adv-x="980" d="M92 197q0 96 72 160.5t242 121.5l219 76v139q0 45 -19.5 76t-49.5 50.5t-62.5 27.5t-57.5 8q-59 0 -108 -30.5t-49 -65.5q0 -16 12 -37t23.5 -40t13.5 -35.5t-19 -26.5l-121 -58q-4 -2 -15 13.5t-22.5 38t-20.5 48t-9 42.5q0 37 21.5 78.5t66.5 77.5t116.5 59.5 t172.5 23.5q147 0 223 -51t76 -168v-524q0 -57 30.5 -72.5t83.5 18.5l19 -73q-45 -51 -85 -74t-81 -23q-59 0 -95 38t-44 110q-90 -80 -159 -114t-144 -34q-100 0 -165 61.5t-65 158.5zM207 1229q0 45 32 76.5t77 31.5t76.5 -31.5t31.5 -76.5t-31.5 -77t-76.5 -32t-77 32 t-32 77zM274 248q0 -47 33 -90t111 -43q106 0 207 106v256l-109 -41q-125 -47 -183.5 -85t-58.5 -103zM560 1229q0 45 31.5 76.5t76.5 31.5t77 -31.5t32 -76.5t-32 -77t-77 -32t-76.5 32t-31.5 77z" />
<glyph unicode="&#xe5;" horiz-adv-x="980" d="M92 197q0 96 72 160.5t242 121.5l219 76v139q0 45 -19.5 76t-49.5 50.5t-62.5 27.5t-57.5 8q-59 0 -108 -30.5t-49 -65.5q0 -16 12 -37t23.5 -40t13.5 -35.5t-19 -26.5l-121 -58q-4 -2 -15 13.5t-22.5 38t-20.5 48t-9 42.5q0 37 21.5 78.5t66.5 77.5t116.5 59.5 t172.5 23.5q147 0 223 -51t76 -168v-524q0 -57 30.5 -72.5t83.5 18.5l19 -73q-45 -51 -85 -74t-81 -23q-59 0 -95 38t-44 110q-90 -80 -159 -114t-144 -34q-100 0 -165 61.5t-65 158.5zM274 248q0 -47 33 -90t111 -43q106 0 207 106v256l-109 -41q-125 -47 -183.5 -85 t-58.5 -103zM300 1231q0 80 55 135t135 55t136 -55t56 -135t-56 -136.5t-136 -56.5t-135 56.5t-55 136.5zM369 1231q0 -51 35 -87t86 -36t87 36t36 87t-36 86t-87 35t-86 -35t-35 -86z" />
<glyph unicode="&#xe6;" horiz-adv-x="1404" d="M70 190q0 86 48 142.5t124.5 93.5t174 60.5t195.5 45.5v117q0 94 -43 150.5t-114 56.5q-12 0 -42 -4t-63 -16.5t-57.5 -33t-24.5 -50.5q0 -25 13.5 -44.5t23.5 -36t11 -29.5t-21 -26l-92 -49q-20 -12 -39 2.5t-32 40t-20.5 56t-7.5 51.5q0 59 42 102t105.5 71t135.5 41 t131 13q92 0 148.5 -28.5t91.5 -94.5q86 123 258 123q141 0 229 -89t98 -239l-557 -120q-6 -188 60.5 -266t204.5 -78q176 0 274 114l43 -41q-72 -129 -165 -188.5t-226 -59.5q-201 0 -324 173q-178 -172 -356 -173q-104 0 -165.5 57.5t-61.5 155.5zM246 238q0 -53 41 -88 t100 -35q115 0 225 106v240q-88 -20 -156.5 -41t-115.5 -46.5t-70.5 -57t-23.5 -78.5zM786 569l365 80q-25 109 -69 158t-117 49q-100 0 -142.5 -70.5t-36.5 -216.5z" />
<glyph unicode="&#xe7;" horiz-adv-x="960" d="M90 453q0 82 26.5 169t85 158.5t149.5 117.5t222 46q63 0 122 -10t104 -31.5t71.5 -56.5t26.5 -86q0 -47 -21.5 -72.5t-56.5 -25.5q-49 0 -66.5 30.5t-36 66.5t-54 66.5t-123.5 30.5q-129 0 -206 -91t-77 -241q0 -68 21.5 -136.5t64.5 -123.5t105.5 -90t142.5 -35 q98 0 159.5 32t104.5 99l47 -30q-33 -123 -133 -193t-242 -70q-115 0 -196.5 44.5t-135 113t-79 152.5t-25.5 166zM248 -340l8 33q29 -6 44 -8t30 -2q53 0 92 31.5t39 78.5q0 94 -144 111l134 71q92 -8 131 -49t39 -90q0 -41 -19.5 -75.5t-53.5 -61.5t-81 -41t-100 -14 q-27 0 -51.5 3t-67.5 13z" />
<glyph unicode="&#xe8;" horiz-adv-x="960" d="M88 451q0 104 33 195t90 156.5t136 103.5t169 38q98 0 170 -39t118 -95t68.5 -121.5t22.5 -121.5h-653q-4 -102 24.5 -182t77.5 -134t114.5 -82t137.5 -28q143 0 256 99l43 -39q-66 -109 -165 -166.5t-216 -57.5q-92 0 -171 36t-135 98.5t-88 149.5t-32 190zM254 641h426 q-12 111 -64.5 169t-138.5 58q-90 0 -149.5 -61.5t-73.5 -165.5zM279 1421h223l104 -346h-32z" />
<glyph unicode="&#xe9;" horiz-adv-x="960" d="M88 451q0 104 33 195t90 156.5t136 103.5t169 38q98 0 170 -39t118 -95t68.5 -121.5t22.5 -121.5h-653q-4 -102 24.5 -182t77.5 -134t114.5 -82t137.5 -28q143 0 256 99l43 -39q-66 -109 -165 -166.5t-216 -57.5q-92 0 -171 36t-135 98.5t-88 149.5t-32 190zM254 641h426 q-12 111 -64.5 169t-138.5 58q-90 0 -149.5 -61.5t-73.5 -165.5zM377 1075l104 346h223l-295 -346h-32z" />
<glyph unicode="&#xea;" horiz-adv-x="960" d="M88 451q0 104 33 195t90 156.5t136 103.5t169 38q98 0 170 -39t118 -95t68.5 -121.5t22.5 -121.5h-653q-4 -102 24.5 -182t77.5 -134t114.5 -82t137.5 -28q143 0 256 99l43 -39q-66 -109 -165 -166.5t-216 -57.5q-92 0 -171 36t-135 98.5t-88 149.5t-32 190zM219 1067 l189 330h184l191 -330h-31l-273 215l-229 -215h-31zM254 641h426q-12 111 -64.5 169t-138.5 58q-90 0 -149.5 -61.5t-73.5 -165.5z" />
<glyph unicode="&#xeb;" horiz-adv-x="960" d="M88 451q0 104 33 195t90 156.5t136 103.5t169 38q98 0 170 -39t118 -95t68.5 -121.5t22.5 -121.5h-653q-4 -102 24.5 -182t77.5 -134t114.5 -82t137.5 -28q143 0 256 99l43 -39q-66 -109 -165 -166.5t-216 -57.5q-92 0 -171 36t-135 98.5t-88 149.5t-32 190zM217 1229 q0 45 32 76.5t77 31.5t76.5 -31.5t31.5 -76.5t-31.5 -77t-76.5 -32t-77 32t-32 77zM254 641h426q-12 111 -64.5 169t-138.5 58q-90 0 -149.5 -61.5t-73.5 -165.5zM570 1229q0 45 31.5 76.5t76.5 31.5t77 -31.5t32 -76.5t-32 -77t-77 -32t-76.5 32t-31.5 77z" />
<glyph unicode="&#xec;" horiz-adv-x="555" d="M53 797v47l277 100h51v-706q0 -86 36 -124t91 -40v-74h-447v74q59 0 103.5 35.5t44.5 113.5v496zM76 1421h223l104 -346h-32z" />
<glyph unicode="&#xed;" horiz-adv-x="555" d="M53 797v47l277 100h51v-706q0 -86 36 -124t91 -40v-74h-447v74q59 0 103.5 35.5t44.5 113.5v496zM175 1075l104 346h223l-295 -346h-32z" />
<glyph unicode="&#xee;" horiz-adv-x="555" d="M-4 1067l189 330h184l191 -330h-31l-273 215l-229 -215h-31zM53 797v47l277 100h51v-706q0 -86 36 -124t91 -40v-74h-447v74q59 0 103.5 35.5t44.5 113.5v496z" />
<glyph unicode="&#xef;" horiz-adv-x="555" d="M-6 1229q0 45 32 76.5t77 31.5t76.5 -31.5t31.5 -76.5t-31.5 -77t-76.5 -32t-77 32t-32 77zM53 797v47l277 100h51v-706q0 -86 36 -124t91 -40v-74h-447v74q59 0 103.5 35.5t44.5 113.5v496zM347 1229q0 45 31.5 76.5t76.5 31.5t77 -31.5t32 -76.5t-32 -77t-77 -32 t-76.5 32t-31.5 77z" />
<glyph unicode="&#xf0;" horiz-adv-x="1052" d="M57 467q0 100 36 187t97.5 151.5t145.5 101.5t178 37q35 0 86 -13t92 -48l4 4q-23 59 -62.5 133t-107.5 149l-227 -139l-37 55l217 132q-41 39 -94 77.5t-119 73.5l78 47q139 -55 242 -133l217 133l37 -55l-199 -121q96 -82 162.5 -179t108.5 -197.5t61.5 -199 t19.5 -184.5q0 -104 -35.5 -196.5t-98 -160t-147.5 -106.5t-182 -39q-96 0 -182 39t-150.5 105.5t-102.5 156t-38 189.5zM252 545q0 -68 16.5 -154t52 -160.5t92 -126t136.5 -51.5q121 0 189.5 78t68.5 213q0 66 -14.5 156t-49 172t-93 139t-144.5 57q-115 0 -184.5 -72.5 t-69.5 -250.5z" />
<glyph unicode="&#xf1;" horiz-adv-x="1173" d="M35 0v74q152 6 151 155v494l-137 78v47l258 96h51v-174h4q63 84 152.5 129t175.5 45q143 0 222 -75.5t79 -241.5v-389q0 -78 29 -116t117 -48v-74h-484v74q90 0 128 42t38 126v340q0 98 -46 161.5t-146 63.5q-72 0 -137.5 -33t-131.5 -88v-444q0 -86 37 -127t129 -41v-74 h-489zM269 1104q4 127 52 193.5t136 66.5q49 0 94 -22.5t86 -48t77 -48t67 -22.5q80 0 96 141h31v-18q0 -109 -53.5 -177.5t-139.5 -68.5q-49 0 -93 22.5t-85 48.5q-41 27 -77 48.5t-69 21.5q-41 0 -63.5 -39t-28.5 -98h-30z" />
<glyph unicode="&#xf2;" horiz-adv-x="1110" d="M88 467q0 100 36 187t97.5 151.5t145.5 101.5t178 37q104 0 192 -35t151.5 -98t98.5 -150.5t35 -191.5t-35 -194.5t-97.5 -156t-146.5 -103.5t-182 -38q-96 0 -182 39t-150.5 105.5t-102.5 156t-38 189.5zM283 545q0 -68 16 -154t52 -160.5t92.5 -126t136.5 -51.5 q121 0 189.5 78t68.5 213q0 66 -14.5 156t-49.5 172t-93 139t-144 57q-115 0 -184.5 -72.5t-69.5 -250.5zM355 1421h223l104 -346h-32z" />
<glyph unicode="&#xf3;" horiz-adv-x="1110" d="M88 467q0 100 36 187t97.5 151.5t145.5 101.5t178 37q104 0 192 -35t151.5 -98t98.5 -150.5t35 -191.5t-35 -194.5t-97.5 -156t-146.5 -103.5t-182 -38q-96 0 -182 39t-150.5 105.5t-102.5 156t-38 189.5zM283 545q0 -68 16 -154t52 -160.5t92.5 -126t136.5 -51.5 q121 0 189.5 78t68.5 213q0 66 -14.5 156t-49.5 172t-93 139t-144 57q-115 0 -184.5 -72.5t-69.5 -250.5zM453 1075l104 346h223l-295 -346h-32z" />
<glyph unicode="&#xf4;" horiz-adv-x="1110" d="M88 467q0 100 36 187t97.5 151.5t145.5 101.5t178 37q104 0 192 -35t151.5 -98t98.5 -150.5t35 -191.5t-35 -194.5t-97.5 -156t-146.5 -103.5t-182 -38q-96 0 -182 39t-150.5 105.5t-102.5 156t-38 189.5zM274 1067l189 330h184l191 -330h-31l-273 215l-229 -215h-31z M283 545q0 -68 16 -154t52 -160.5t92.5 -126t136.5 -51.5q121 0 189.5 78t68.5 213q0 66 -14.5 156t-49.5 172t-93 139t-144 57q-115 0 -184.5 -72.5t-69.5 -250.5z" />
<glyph unicode="&#xf5;" horiz-adv-x="1110" d="M88 467q0 100 36 187t97.5 151.5t145.5 101.5t178 37q104 0 192 -35t151.5 -98t98.5 -150.5t35 -191.5t-35 -194.5t-97.5 -156t-146.5 -103.5t-182 -38q-96 0 -182 39t-150.5 105.5t-102.5 156t-38 189.5zM238 1104q4 127 52 193.5t136 66.5q49 0 94 -22.5t86 -48t77 -48 t67 -22.5q80 0 96 141h31v-18q0 -109 -53.5 -177.5t-139.5 -68.5q-49 0 -93 22.5t-85 48.5q-41 27 -77 48.5t-69 21.5q-41 0 -63.5 -39t-28.5 -98h-30zM283 545q0 -68 16 -154t52 -160.5t92.5 -126t136.5 -51.5q121 0 189.5 78t68.5 213q0 66 -14.5 156t-49.5 172t-93 139 t-144 57q-115 0 -184.5 -72.5t-69.5 -250.5z" />
<glyph unicode="&#xf6;" horiz-adv-x="1110" d="M88 467q0 100 36 187t97.5 151.5t145.5 101.5t178 37q104 0 192 -35t151.5 -98t98.5 -150.5t35 -191.5t-35 -194.5t-97.5 -156t-146.5 -103.5t-182 -38q-96 0 -182 39t-150.5 105.5t-102.5 156t-38 189.5zM272 1229q0 45 32 76.5t77 31.5t76.5 -31.5t31.5 -76.5 t-31.5 -77t-76.5 -32t-77 32t-32 77zM283 545q0 -68 16 -154t52 -160.5t92.5 -126t136.5 -51.5q121 0 189.5 78t68.5 213q0 66 -14.5 156t-49.5 172t-93 139t-144 57q-115 0 -184.5 -72.5t-69.5 -250.5zM625 1229q0 45 31.5 76.5t76.5 31.5t77 -31.5t32 -76.5t-32 -77 t-77 -32t-76.5 32t-31.5 77z" />
<glyph unicode="&#xf7;" horiz-adv-x="1368" d="M135 588v157h1096v-157h-1096zM586 248q0 41 27.5 69.5t68.5 28.5t69.5 -28.5t28.5 -69.5t-28.5 -68.5t-69.5 -27.5t-68.5 27.5t-27.5 68.5zM586 1083q0 41 27.5 70t68.5 29t69.5 -29t28.5 -70t-28.5 -68.5t-69.5 -27.5t-68.5 27.5t-27.5 68.5z" />
<glyph unicode="&#xf8;" horiz-adv-x="1110" d="M88 473q0 98 36 184t97.5 149.5t145.5 100.5t178 37q162 0 295 -90l80 92l59 -49l-80 -96q59 -63 91 -149.5t32 -184.5q0 -104 -35 -193.5t-97.5 -156t-147.5 -103.5t-183 -37q-152 0 -283 101l-83 -98l-62 49l86 104q-129 152 -129 340zM283 561q0 -92 14 -160.5 t39 -134.5l403 473q-76 129 -215 129q-49 0 -92 -16t-76.5 -53t-53 -95.5t-19.5 -142.5zM373 190q47 -72 96 -104.5t106 -32.5q129 0 196 82t67 207q0 78 -15.5 163t-44.5 157z" />
<glyph unicode="&#xf9;" horiz-adv-x="1173" d="M39 825v74l336 23v-572q0 -117 47 -172t139 -55q68 0 127.5 23.5t132.5 82.5v418q0 61 -7 96t-27.5 53.5t-54.5 23.5t-87 5v74l348 23v-709q0 -70 27 -93.5t113 -4.5v-80l-312 -58v158q-90 -84 -170 -121t-172 -37q-57 0 -107 15.5t-88 47.5t-59.5 83t-21.5 123v401 q0 61 -8.5 96t-26.5 53.5t-50 23.5t-79 5zM365 1421h223l104 -346h-32z" />
<glyph unicode="&#xfa;" horiz-adv-x="1173" d="M39 825v74l336 23v-572q0 -117 47 -172t139 -55q68 0 127.5 23.5t132.5 82.5v418q0 61 -7 96t-27.5 53.5t-54.5 23.5t-87 5v74l348 23v-709q0 -70 27 -93.5t113 -4.5v-80l-312 -58v158q-90 -84 -170 -121t-172 -37q-57 0 -107 15.5t-88 47.5t-59.5 83t-21.5 123v401 q0 61 -8.5 96t-26.5 53.5t-50 23.5t-79 5zM484 1075l104 346h223l-295 -346h-32z" />
<glyph unicode="&#xfb;" horiz-adv-x="1173" d="M39 825v74l336 23v-572q0 -117 47 -172t139 -55q68 0 127.5 23.5t132.5 82.5v418q0 61 -7 96t-27.5 53.5t-54.5 23.5t-87 5v74l348 23v-709q0 -70 27 -93.5t113 -4.5v-80l-312 -58v158q-90 -84 -170 -121t-172 -37q-57 0 -107 15.5t-88 47.5t-59.5 83t-21.5 123v401 q0 61 -8.5 96t-26.5 53.5t-50 23.5t-79 5zM305 1067l189 330h184l191 -330h-31l-273 215l-229 -215h-31z" />
<glyph unicode="&#xfc;" horiz-adv-x="1173" d="M39 825v74l336 23v-572q0 -117 47 -172t139 -55q68 0 127.5 23.5t132.5 82.5v418q0 61 -7 96t-27.5 53.5t-54.5 23.5t-87 5v74l348 23v-709q0 -70 27 -93.5t113 -4.5v-80l-312 -58v158q-90 -84 -170 -121t-172 -37q-57 0 -107 15.5t-88 47.5t-59.5 83t-21.5 123v401 q0 61 -8.5 96t-26.5 53.5t-50 23.5t-79 5zM303 1229q0 45 32 76.5t77 31.5t76.5 -31.5t31.5 -76.5t-31.5 -77t-76.5 -32t-77 32t-32 77zM656 1229q0 45 31.5 76.5t76.5 31.5t77 -31.5t32 -76.5t-32 -77t-77 -32t-76.5 32t-31.5 77z" />
<glyph unicode="&#xfd;" horiz-adv-x="980" d="M4 848v74h447v-74q-92 -4 -114 -40t13 -116l211 -483l176 448q31 80 6.5 133.5t-118.5 57.5v74h354v-74q-57 -12 -85 -45t-58 -111l-340 -864q-88 -219 -269 -219q-72 0 -118 31.5t-46 85.5q0 35 26 59.5t63 24.5q27 0 42 -10.5t29.5 -23t30.5 -22.5t43 -10q59 0 99 56.5 t81 189.5l-325 737q-20 45 -37 69.5t-33 36t-34.5 13.5t-43.5 2zM388 1075l104 346h223l-295 -346h-32z" />
<glyph unicode="&#xfe;" horiz-adv-x="1148" d="M23 -317q76 0 113.5 42t37.5 107v1366l-145 80v47l266 98h51v-632q80 80 160 116.5t174 36.5q84 0 152.5 -31.5t118.5 -90t78 -137.5t28 -175q0 -111 -37 -208t-101.5 -169t-149.5 -114t-183 -42q-121 0 -240 60v-184q0 -102 43 -136t131 -34v-74h-497v74zM346 342 q0 -133 73 -204.5t183 -71.5q131 0 207 90t76 260q0 106 -29 180t-74 119t-96 65.5t-98 20.5q-123 0 -242 -94v-365z" />
<glyph unicode="&#xff;" horiz-adv-x="980" d="M4 848v74h447v-74q-92 -4 -114 -40t13 -116l211 -483l176 448q31 80 6.5 133.5t-118.5 57.5v74h354v-74q-57 -12 -85 -45t-58 -111l-340 -864q-88 -219 -269 -219q-72 0 -118 31.5t-46 85.5q0 35 26 59.5t63 24.5q27 0 42 -10.5t29.5 -23t30.5 -22.5t43 -10q59 0 99 56.5 t81 189.5l-325 737q-20 45 -37 69.5t-33 36t-34.5 13.5t-43.5 2zM207 1229q0 45 32 76.5t77 31.5t76.5 -31.5t31.5 -76.5t-31.5 -77t-76.5 -32t-77 32t-32 77zM560 1229q0 45 31.5 76.5t76.5 31.5t77 -31.5t32 -76.5t-32 -77t-77 -32t-76.5 32t-31.5 77z" />
<glyph unicode="&#x152;" horiz-adv-x="2111" d="M92 707q0 158 50.5 284.5t143.5 216.5t224 139.5t291 49.5h1155v-320h-72q-27 59 -51.5 103.5t-62 73t-97 42t-157.5 13.5h-453v-4q293 -150 330 -529h153q59 0 98 9.5t64 33t36 62.5t15 96h94v-504h-94q-8 63 -23.5 104t-41 66t-64.5 35t-96 10h-137q0 -190 -75 -331.5 t-249 -264.5v-4h537q63 0 111 16.5t90 50t81 84t82 117.5h86l-69 -356h-1215q-176 0 -305 61.5t-213 162t-125 226t-41 257.5zM340 780q0 -88 21.5 -206.5t72.5 -225t133 -180.5t205 -74q84 0 152.5 41t119 115t78 175t27.5 222q0 141 -32 262t-87 209t-132 138.5t-169 50.5 q-82 0 -152.5 -33t-123 -98.5t-83 -164t-30.5 -231.5z" />
<glyph unicode="&#x153;" horiz-adv-x="1556" d="M98 457q0 78 26 164t80 157.5t136 118.5t195 47q96 0 170.5 -33.5t142.5 -109.5q61 78 127.5 110.5t165.5 32.5q315 0 356 -373h-577q4 -119 24.5 -201.5t73.5 -136.5q41 -41 99.5 -66.5t123.5 -25.5q143 0 234 119l43 -27q-47 -117 -142.5 -186.5t-208.5 -69.5 q-94 0 -176 40t-143 112q-68 -74 -152 -113t-176 -39q-88 0 -164.5 35t-134 98.5t-90.5 151.5t-33 195zM291 526q0 -92 10 -177t39 -150.5t78 -105.5t129 -40q66 0 106.5 29t64 76t32 106.5t8.5 118.5q0 100 -15.5 188t-46 155t-79 104.5t-113.5 37.5q-98 0 -155.5 -79 t-57.5 -263zM920 645h374q-10 113 -62 168t-132 55q-162 0 -180 -223z" />
<glyph unicode="&#x178;" horiz-adv-x="1472" d="M16 1319v78h615v-78q-123 0 -150.5 -50t27.5 -130l305 -445l238 348q37 53 49 102.5t-0.5 87.5t-49 61.5t-98.5 25.5v78h504v-78q-31 -4 -57.5 -15.5t-54 -34t-57.5 -59t-66 -90.5l-375 -534v-316q0 -193 205 -192v-78h-629v78q102 0 155.5 45t53.5 149v314l-428 626 q-35 53 -78 77t-109 30zM452 1667q0 45 32 76.5t77 31.5t76.5 -31.5t31.5 -76.5t-31.5 -77t-76.5 -32t-77 32t-32 77zM805 1667q0 45 31.5 76.5t76.5 31.5t77 -31.5t32 -76.5t-32 -77t-77 -32t-76.5 32t-31.5 77z" />
<glyph unicode="&#x2c6;" horiz-adv-x="681" d="M59 1067l189 330h184l191 -330h-31l-273 215l-229 -215h-31z" />
<glyph unicode="&#x2dc;" horiz-adv-x="681" d="M23 1104q4 127 52 193.5t136 66.5q49 0 94 -22.5t86 -48t77 -48t67 -22.5q80 0 96 141h31v-18q0 -109 -53.5 -177.5t-139.5 -68.5q-49 0 -93 22.5t-85 48.5q-41 27 -77 48.5t-69 21.5q-41 0 -63.5 -39t-28.5 -98h-30z" />
<glyph unicode="&#x2000;" horiz-adv-x="929" />
<glyph unicode="&#x2001;" horiz-adv-x="1859" />
<glyph unicode="&#x2002;" horiz-adv-x="929" />
<glyph unicode="&#x2003;" horiz-adv-x="1859" />
<glyph unicode="&#x2004;" horiz-adv-x="619" />
<glyph unicode="&#x2005;" horiz-adv-x="464" />
<glyph unicode="&#x2006;" horiz-adv-x="309" />
<glyph unicode="&#x2007;" horiz-adv-x="309" />
<glyph unicode="&#x2008;" horiz-adv-x="232" />
<glyph unicode="&#x2009;" horiz-adv-x="371" />
<glyph unicode="&#x200a;" horiz-adv-x="103" />
<glyph unicode="&#x2010;" horiz-adv-x="747" d="M59 408v155h629v-155h-629z" />
<glyph unicode="&#x2011;" horiz-adv-x="747" d="M59 408v155h629v-155h-629z" />
<glyph unicode="&#x2012;" horiz-adv-x="747" d="M59 408v155h629v-155h-629z" />
<glyph unicode="&#x2013;" horiz-adv-x="1024" d="M-12 465v88h1048v-88h-1048z" />
<glyph unicode="&#x2014;" horiz-adv-x="2048" d="M-12 465v88h2072v-88h-2072z" />
<glyph unicode="&#x2018;" horiz-adv-x="598" d="M131 1085q0 111 74 204t231 134l31 -69q-111 -35 -165 -88.5t-54 -118.5q0 -35 15.5 -52.5t55.5 -17.5q137 0 138 -108q0 -53 -35 -85t-94 -32q-78 0 -137.5 62.5t-59.5 170.5z" />
<glyph unicode="&#x2019;" horiz-adv-x="598" d="M131 922q111 35 165 88t54 118q0 35 -15.5 52.5t-55.5 17.5q-137 0 -138 109q0 53 35 84.5t94 31.5q78 0 137.5 -62.5t59.5 -170.5q0 -111 -74 -204t-231 -134z" />
<glyph unicode="&#x201a;" horiz-adv-x="681" d="M172 -170q109 39 164 89t55 118q0 39 -17.5 55.5t-58.5 16.5q-133 0 -133 108q0 47 33 82t98 35q37 0 73 -16.5t62.5 -47t43 -72.5t16.5 -94q0 -55 -17.5 -107t-54.5 -97t-95 -80t-140 -56z" />
<glyph unicode="&#x201c;" horiz-adv-x="1044" d="M125 1085q0 111 73.5 204t231.5 134l31 -69q-111 -35 -165 -88.5t-54 -118.5q0 -35 15 -52.5t56 -17.5q137 0 138 -108q0 -53 -35 -85t-94 -32q-78 0 -137.5 62.5t-59.5 170.5zM584 1085q0 111 73.5 204t231.5 134l31 -69q-111 -35 -165.5 -88.5t-54.5 -118.5 q0 -35 15.5 -52.5t56.5 -17.5q137 0 137 -108q0 -53 -34.5 -85t-94.5 -32q-78 0 -137 62.5t-59 170.5z" />
<glyph unicode="&#x201d;" horiz-adv-x="1044" d="M125 922q111 35 165 88t54 118q0 35 -15.5 52.5t-56.5 17.5q-137 0 -137 109q0 53 35 84.5t94 31.5q78 0 137.5 -62.5t59.5 -170.5q0 -111 -74 -204t-231 -134zM584 922q111 35 165 88t54 118q0 35 -15.5 52.5t-56.5 17.5q-137 0 -137 109q0 53 35 84.5t94 31.5 q78 0 137.5 -62.5t59.5 -170.5q0 -111 -74 -204t-232 -134z" />
<glyph unicode="&#x201e;" horiz-adv-x="1044" d="M125 -170q109 39 164 89t55 118q0 39 -17.5 55.5t-58.5 16.5q-133 0 -133 108q0 47 33 82t98 35q37 0 73 -16.5t62.5 -47t43 -72.5t16.5 -94q0 -55 -17.5 -107t-54.5 -97t-95 -80t-140 -56zM584 -170q109 39 164 89t55 118q0 39 -17.5 55.5t-58.5 16.5q-133 0 -133 108 q0 47 32.5 82t98.5 35q37 0 73 -16.5t62.5 -47t43 -72.5t16.5 -94q0 -55 -17.5 -107t-54.5 -97t-95.5 -80t-140.5 -56z" />
<glyph unicode="&#x2022;" horiz-adv-x="716" d="M109 678q0 53 19 98t53 79t80 53.5t97 19.5q53 0 98.5 -19.5t80 -53.5t54 -79t19.5 -98q0 -51 -19.5 -97t-54 -81t-79.5 -54.5t-99 -19.5q-51 0 -97 19.5t-80 54.5t-53 81t-19 97z" />
<glyph unicode="&#x2026;" horiz-adv-x="2048" d="M217 104q0 53 36 89t89 36t90 -35.5t37 -89.5q0 -53 -37 -90t-90 -37t-89 37t-36 90zM899 104q0 53 36 89t89 36t90 -35.5t37 -89.5q0 -53 -37 -90t-90 -37t-89 37t-36 90zM1581 104q0 53 36 89t89 36t90 -35.5t37 -89.5q0 -53 -37 -90t-90 -37t-89 37t-36 90z" />
<glyph unicode="&#x202f;" horiz-adv-x="371" />
<glyph unicode="&#x2039;" horiz-adv-x="512" d="M82 516l303 451h49l-184 -451l184 -450h-49z" />
<glyph unicode="&#x203a;" horiz-adv-x="512" d="M78 66l184 450l-184 451h49l303 -451l-303 -450h-49z" />
<glyph unicode="&#x205f;" horiz-adv-x="464" />
<glyph unicode="&#x2122;" horiz-adv-x="2007" d="M31 1159l20 201h729l21 -201h-33q-14 78 -56 109.5t-137 31.5h-71v-581q0 -41 4 -65.5t14 -39t29.5 -19.5t52.5 -7v-35h-375v35q35 4 55.5 9t31 19.5t13.5 38t3 64.5v581h-78q-92 0 -133 -30.5t-58 -110.5h-32zM870 553v35q37 0 59.5 5t34 18.5t15.5 39t4 68.5v467 q0 47 -3 73.5t-15.5 41t-35 18.5t-59.5 4v37h287l273 -574l262 574h282v-37q-37 0 -58.5 -5t-32.5 -19.5t-15 -41t-4 -71.5v-467q0 -43 3 -67.5t14 -38t33.5 -18.5t59.5 -7v-35h-399v35q37 0 60.5 5t35.5 19.5t16.5 40t4.5 66.5v491h-4l-299 -657h-33l-305 649h-4v-483 q0 -82 18 -106.5t78 -24.5h35v-35h-308z" />
<glyph unicode="&#xe000;" horiz-adv-x="921" d="M0 0v922h922v-922h-922z" />
<glyph unicode="&#xfb01;" horiz-adv-x="1173" d="M37 825v97h63q72 0 97.5 22.5t29.5 93.5q4 84 38 157t94.5 125t144.5 82t184 30q127 0 208 -41t81 -107q0 -39 -25.5 -65.5t-60.5 -26.5q-41 0 -66.5 23.5t-52.5 52t-60.5 52t-93.5 23.5q-102 0 -163.5 -64.5t-61.5 -205.5v-151h438q41 0 89.5 6t80.5 28v-729 q0 -86 45.5 -118.5t100.5 -34.5v-74h-471v74q68 0 110.5 35.5t42.5 113.5v496q0 49 -29.5 77.5t-101.5 28.5h-305v-571q0 -84 30 -130t120 -50v-74h-475v74q154 0 153 155v596h-184z" />
<glyph unicode="&#xfb02;" horiz-adv-x="1173" d="M37 825v97h65q78 0 99.5 26.5t25.5 89.5q8 115 55.5 190t114 121t144 64.5t147.5 18.5q76 0 115 -10.5t76 -26.5l106 28h19v-1179q0 -84 28.5 -123t110.5 -47v-74h-461v74q80 4 114.5 47t34.5 112v592h-436v-571q0 -86 28 -129t120 -51v-74h-473v74q82 0 117.5 45 t35.5 117v589h-186zM395 922h436v290q-25 8 -40 30t-36.5 44.5t-54 39.5t-92.5 17q-100 0 -156.5 -71.5t-56.5 -214.5v-135z" />
</font>
</defs>
</svg>
